<?xml version="1.0" standalone="no"?>
<!DOCTYPE svg PUBLIC "-//W3C//DTD SVG 1.1//EN" "http://www.w3.org/Graphics/SVG/1.1/DTD/svg11.dtd" >
<svg xmlns="http://www.w3.org/2000/svg">
<metadata>Generated by IcoMoon</metadata>
<defs>
<font id="freshair" horiz-adv-x="1024">
<font-face units-per-em="1024" ascent="960" descent="-64" />
<missing-glyph horiz-adv-x="1024" />
<glyph unicode="&#x20;" horiz-adv-x="512" d="" />
<glyph unicode="&#xe900;" glyph-name="alert" horiz-adv-x="819" d="M320.41 152.781c-4.608-50.483 33.382-98.56 88.474-98.714h1.024c55.45 0 93.491 48.384 88.781 98.765h-178.278zM412.16 960h-5.222c-45.312-9.472-63.693-32.154-63.744-78.541 0-34.662 0-34.662-32.768-46.182-104.192-36.813-166.093-118.784-172.288-227.635-3.072-53.606-2.099-107.418-12.595-160.461-10.24-51.354-22.016-102.656-52.992-145.408-17.050-23.603-22.579-46.643-21.146-74.086 1.331-25.242-2.099-26.368 19.149-26.368h674.56c22.272 0 22.272 0 22.323 22.272v1.331c2.765 29.594-4.403 54.835-21.914 80.538-33.28 48.845-45.824 106.291-54.374 164.147-5.215 35.93-8.192 77.415-8.192 119.595 0 0.201 0 0.403 0 0.604v-0.032c-1.178 126.106-71.475 217.907-193.024 252.416-10.24 2.97-14.438 33.024-13.722 40.397 3.942 42.291-23.194 73.779-64.051 77.414zM411.136 833.434c10.957-23.654 29.696-45.21 60.723-54.067 93.184-26.47 143.002-91.494 143.872-188.006 0.563-55.091 3.533-97.792 9.523-138.598 9.216-62.259 22.938-127.744 58.624-188.57h-547.021c30.054 51.661 43.008 107.52 53.606 160.819 9.574 48.128 11.264 94.362 12.954 139.008 0.512 14.131 1.024 28.262 1.843 42.342 4.659 81.664 48.538 139.469 126.976 167.168 41.83 14.848 66.202 32.102 78.848 59.904z" />
<glyph unicode="&#xe901;" glyph-name="Arrow" horiz-adv-x="614" d="M65.946 960l-65.946-66.509 441.754-445.491-441.754-445.491 65.946-66.509 507.494 511.795z" />
<glyph unicode="&#xe902;" glyph-name="Arrow2" d="M711.987 755.2l-40.499-39.219 236.493-229.018-907.981-0.512v-66.867l906.496-0.922-235.008-228.557 40.499-39.219 312.013 302.029z" />
<glyph unicode="&#xe903;" glyph-name="Arrow3" d="M512 435.2l-417.997-0.461 188.006-182.784-32.41-31.437-249.6 241.664 249.6 241.818 32.41-31.386-189.184-183.194h838.349l-189.184 183.194 32.41 31.386 249.6-241.818-249.6-241.664-32.41 31.437 188.006 182.784z" />
<glyph unicode="&#xe904;" glyph-name="carot" d="M531.046 47.718l-479.846 707.482h959.693z" />
<glyph unicode="&#xe905;" glyph-name="checkmark" d="M978.381 806.4l45.722-46.49-675.123-663.654-348.979 343.040 45.722 46.541 303.258-298.138z" />
<glyph unicode="&#xe906;" glyph-name="checkround" d="M512-64c-282.778 0-512 229.222-512 512s229.222 512 512 512 512-229.222 512-512-229.222-512-512-512zM512 25.088c233.568 0 422.912 189.344 422.912 422.912s-189.344 422.912-422.912 422.912v0c-233.568 0-422.912-189.344-422.912-422.912s189.344-422.912 422.912-422.912v0zM706.867 622.080l67.174-58.47-282.829-324.557-197.632 159.386 55.859 69.274 130.97-105.523 226.458 259.891z" />
<glyph unicode="&#xe907;" glyph-name="close" d="M591.36 448l430.643-430.643-81.357-81.357-430.643 430.643-428.646-428.646-81.357 81.357 428.646 428.646-428.646 428.646 81.357 81.357 428.646-428.646 430.643 430.643 81.357-81.357z" />
<glyph unicode="&#xe908;" glyph-name="Language" d="M639.898 1.382c44.8 38.093 95.027 96.563 130.816 183.552h124.518c-60.969-87.489-149.104-152.348-252.030-182.716l-3.305-0.836zM128.768 184.934h109.312c33.689-73.205 82.191-134.419 142.043-181.959l1.010-0.774c-104.961 31.607-191.978 96.057-251.36 181.211l-1.005 1.522zM395.52 898.765c-62.208-46.028-112.424-104.66-147.532-172.385l-1.306-2.77h-109.568c62.803 84.717 151.902 146.801 255.093 174.412l3.262 0.743zM886.938 723.61h-124.723c-33.494 70.959-81.27 130.211-139.995 176.098l-1.061 0.798c109.553-27.192 201.454-90.205 264.838-175.641l0.89-1.255zM817.92 471.706c-2.202 80.333-15.872 148.326-36.454 205.414h135.629c34.209-59.108 55.901-129.349 59.706-204.31l0.045-1.105h-158.925zM817.92 425.216h158.925c-3.624-71.46-22.947-137.656-54.56-196.243l1.209 2.451h-136.038c17.050 54.579 28.314 118.784 30.413 193.792zM535.296 231.424v193.792h236.032c-2.202-76.493-14.643-140.493-32.973-193.792h-203.11zM535.296-12.186v197.12h184.525c-58.522-127.795-150.016-180.941-184.576-197.12zM488.704 184.934v-195.482c-40.294 17.766-137.216 71.322-200.038 195.482h200.038zM231.782 425.216h256.922v-193.792h-220.518c-20.224 53.299-33.946 117.248-36.352 193.792zM185.242 471.706h-138.086c3.826 76.066 25.521 146.312 60.935 207.639l-1.185-2.225h118.579c-22.374-56.73-37.734-124.826-40.243-205.414zM488.704 677.12v-205.414h-256.922c2.56 81.92 19.2 149.709 43.469 205.414h213.453zM488.704 723.61h-189.952c44.833 76.968 109.631 137.983 187.375 177.004l2.577 1.172v-178.176zM732.57 677.12c21.76-55.501 36.557-123.29 38.861-205.414h-236.186v205.414h197.325zM535.245 723.61v177.92c42.906-21.504 121.395-72.858 176.23-177.92h-176.23zM47.155 425.216h138.138c2.253-74.957 14.95-139.11 34.099-193.792h-118.886c-30.443 56.128-49.771 122.332-53.307 192.699l-0.044 1.093zM512 960c-282.317 0-512-229.478-512-511.488 0-282.112 229.683-511.642 512-511.642s512 229.53 512 511.642c0 282.010-229.683 511.488-512 511.488z" />
<glyph unicode="&#xe909;" glyph-name="Menu" d="M25.6 64h960v-128h-960zM25.6 512h960v-128h-960zM25.6 960h960v-128h-960z" />
<glyph unicode="&#xe90a;" glyph-name="MyDelta" d="M812.902 118.682c-23.822 96.484-90.419 173.783-178.015 211.808l-2.004 0.775c47.529 36.372 77.877 93.123 77.877 156.963 0 0.258 0 0.516-0.001 0.773v-0.040c-0.146 109.713-89.046 198.613-198.745 198.758h-0.014c-109.735-0.116-198.664-89.028-198.81-198.744v-0.014c0-62.669 28.774-120.218 77.875-157.696-89.61-38.786-156.212-116.091-179.573-210.453l-0.446-2.13c-89.483 81.757-145.401 198.956-145.408 329.215v0.001c0 246.221 200.192 446.464 446.362 446.464 246.118 0 446.362-200.243 446.362-446.464-0.007-130.26-55.925-247.459-145.064-328.906l-0.344-0.31zM512 290.202c123.546 0 228.762-94.72 242.278-216.883-68.22-44.935-151.883-71.68-241.792-71.68-0.171 0-0.342 0-0.513 0h0.027c-0.159 0-0.348 0-0.537 0-89.91 0-173.572 26.745-243.467 72.714l1.674-1.034c13.568 122.163 118.784 216.832 242.33 216.832zM512 622.080c73.421 0 133.12-59.75 133.12-133.12 0-73.421-59.699-133.171-133.12-133.171-73.485 0.087-133.033 59.635-133.12 133.112v0.008c0 73.421 59.699 133.12 133.12 133.12zM512 960c-282.317 0-512-229.683-512-512.051 0-282.317 229.683-511.949 512-511.949s512 229.632 512 511.949c0 282.368-229.683 512.051-512 512.051z" />
<glyph unicode="&#xe90b;" glyph-name="Search" d="M123.546 529.357c0.204 169.513 137.581 306.872 307.081 307.046h0.017c169.495-0.204 306.843-137.552 307.046-307.027v-0.019c-0.204-169.485-137.558-306.821-307.030-306.995h-0.017c-169.511 0.146-306.894 137.493-307.098 306.976v0.020zM1024-12.8l-300.851 300.8c54.065 64.851 86.887 149.060 86.887 240.935 0 0.148 0 0.296 0 0.445v-0.023c0 209.254-170.189 379.443-379.392 379.443s-379.443-170.189-379.443-379.443c0-209.203 170.24-379.392 379.392-379.392 0.102 0 0.223 0 0.344 0 91.917 0 176.168 32.82 241.674 87.381l-0.61-0.494 300.8-300.851 51.2 51.2z" />
<glyph unicode="&#xe90c;" glyph-name="radio-off" d="M512-17.408c257.038 0 465.408 208.37 465.408 465.408s-208.37 465.408-465.408 465.408v0c-257.038 0-465.408-208.37-465.408-465.408s208.37-465.408 465.408-465.408v0zM512-64c-282.778 0-512 229.222-512 512s229.222 512 512 512 512-229.222 512-512-229.222-512-512-512z" />
<glyph unicode="&#xe90d;" glyph-name="radio-on" d="M516.608-22.118c257.066 0 465.459 208.393 465.459 465.459s-208.393 465.459-465.459 465.459v0c-257.066 0-465.459-208.393-465.459-465.459s208.393-465.459 465.459-465.459v0zM512-64c-282.778 0-512 229.222-512 512s229.222 512 512 512 512-229.222 512-512-229.222-512-512-512zM512 192c-141.385 0-256 114.615-256 256s114.615 256 256 256v0c141.385 0 256-114.615 256-256s-114.615-256-256-256v0z" />
<glyph unicode="&#xe90e;" glyph-name="checked" d="M51.2 908.8v-921.6h921.6v921.6zM0 960h1024v-1024h-1024zM873.6 704l-463.176-485.653-223.176 234.006-33.649-36.513 256.824-269.288 496.824 520.935z" />
<glyph unicode="&#xe90f;" glyph-name="check-default" d="M51.2 908.8v-921.6h921.6v921.6zM0 960h1024v-1024h-1024z" />
<glyph unicode="&#xe910;" glyph-name="check-indeterminate" d="M51.2 908.8v-921.6h921.6v921.6zM0 960h1024v-1024h-1024zM153.6 422.4h716.8v51.2h-716.8z" />
<glyph unicode="&#xe911;" glyph-name="adjustable-seat" d="M166.758 239.206h550.246v84.531h-432.179l0.102-0.768h-163.584l45.414-83.763zM676.71 25.651v194.97h-468.89l105.574-194.918h363.315zM84.736 409.344c8.909-23.603 16.486-39.987 21.094-49.306h59.085c-35.482 45.158-66.765 120.883-79.206 195.84-27.699 119.398 1.28 262.758 13.978 315.29-5.427-0.614-10.394-1.638-14.080-2.56-7.936-14.592-28.16-56.269-39.731-119.552-13.414-73.421-17.562-191.898 38.861-339.712zM118.784 870.605c-11.571-47.616-42.138-193.638-14.848-310.784l0.102-0.563c12.954-78.234 48.282-159.539 85.299-199.168h49.51c-7.578 30.669-23.398 86.272-45.978 121.088-31.846 49.101-52.941 92.723-59.597 158.259-6.912 67.482-2.918 115.046 0.41 139.059l0.154 6.554c0.614 21.658 1.485 43.008 2.253 58.368-1.331 7.322-3.43 14.336-6.605 20.173-1.843 3.43-5.478 5.786-10.701 7.014zM171.008 775.27c-0.717-32.256-0.512-59.034 1.024-70.144 2.253-0.512 5.939-1.024 11.162-1.024 15.462 0 30.515 4.198 36.71 7.782 1.28 8.499 0.205 33.946-8.090 76.186-7.219 37.069-15.667 64.666-20.019 73.626l-2.202 1.024c-2.97 1.382-7.066 3.277-8.806 3.277-0.614-0.102-3.021-1.587-6.502-6.707l-0.717-13.414c0.666-15.258-1.434-62.566-2.56-70.656zM711.168 176.538l190.106-154.317 22.272 21.658-205.722 171.213h-6.656v-38.554zM711.168 139.674v-138.496c-1.874-5.692-7.142-9.728-13.353-9.728-0.021 0-0.043 0-0.064 0h-397.155c-5.276 0.013-9.866 2.937-12.251 7.249l-0.037 0.072-119.296 220.672h-19.968c-5.069 0-9.728 1.997-12.186 6.4l-54.733 99.84-3.789 6.554c-0.512 0.87-12.595 21.658-28.621 64.051-59.802 156.672-54.835 283.136-40.243 361.574 16.077 86.016 46.592 134.451 47.923 136.499l3.482 5.478 6.144 2.099c2.099 0.717 20.634 6.861 41.318 6.861 22.886 0 37.069-7.526 45.824-16.384 6.965 6.585 16.361 10.661 26.709 10.752h0.018c10.035 0 18.432-3.942 24.576-6.758l4.659-2.048c7.014-2.662 20.122-7.68 37.786-95.693 18.944-94.31 6.144-106.342 0-112.128-14.336-13.517-42.752-19.558-64.614-19.558-5.376 0-10.342 0.358-14.848 1.024 0.512-7.885 1.229-16.179 2.099-24.832 5.274-51.558 19.354-88.678 53.862-141.926 28.16-43.52 46.080-111.411 52.992-141.312v-3.891l460.237-0.102c7.782 0 14.029-6.246 14.029-13.926v-78.438l0.973-2.458v-31.232c0-0.037 0.001-0.080 0.001-0.123 0-1.986-0.395-3.879-1.111-5.606l0.036 0.097 192.307-160 54.938 53.35c2.651 2.535 6.253 4.096 10.22 4.096 0.007 0 0.014 0 0.022 0h0.050c3.84 0 7.578-1.434 10.24-4.096l0.461-0.41c2.629-2.521 4.262-6.062 4.262-9.984s-1.634-7.463-4.258-9.979l-0.005-0.005-107.264-104.141c-2.651-2.573-6.272-4.159-10.264-4.159-3.559 0-6.823 1.261-9.371 3.36l0.025-0.020-181.709 147.456z" />
<glyph unicode="&#xe912;" glyph-name="airport-experience" horiz-adv-x="666" d="M474.010 483.328l17.254-43.469h-73.421l17.766 43.52h-312.064v14.387h388.454v-14.438h-37.99zM450.611 483.328h-10.547l-14.438-39.168h9.011l15.974 39.168zM188.314 928.102h-13.824c-0.015 0-0.033 0-0.052 0-8.815 0-15.967 7.117-16.025 15.918v0.006c0 8.858 7.168 15.974 16.077 15.974h286.31c8.858 0 16.077-7.168 16.077-15.974s-7.168-15.923-16.077-15.923h-13.824v-118.118h143.872c24.474 0 44.442-19.814 44.442-44.186v-711.373c0-24.371-19.968-44.186-44.493-44.186h-34.816v-32.461c-0.116-23.099-18.868-41.779-41.984-41.779-0.018 0-0.036 0-0.054 0h-0.612c-0.015 0-0.034 0-0.052 0-23.115 0-41.867 18.68-41.983 41.768v32.472h-307.302v-32.461c-0.116-23.099-18.868-41.779-41.984-41.779-0.018 0-0.036 0-0.054 0h-0.612c-0.031 0-0.067 0-0.103 0-23.115 0-41.867 18.68-41.983 41.768v32.472h-34.714c-0.046 0-0.1 0-0.154 0-24.444 0-44.274 19.758-44.39 44.175v711.384c0 24.371 19.968 44.186 44.493 44.186h143.821v118.118zM498.842 10.24v-32.461c0-7.987 6.502-14.438 14.49-14.438h0.614c0 0 0 0 0 0 7.984 0 14.46 6.458 14.49 14.436v32.464h-29.594zM106.854 10.24v-32.461c0-7.987 6.502-14.438 14.541-14.438h0.512c0.015 0 0.033 0 0.051 0 7.984 0 14.46 6.458 14.49 14.436v32.464h-29.594zM44.493 778.086c-0.015 0-0.033 0-0.051 0-6.797 0-12.31-5.495-12.339-12.285v-711.376c0-6.758 5.581-12.288 12.39-12.288h546.304c0.015 0 0.033 0 0.051 0 6.797 0 12.31 5.495 12.339 12.285v711.376c-0.029 6.793-5.542 12.288-12.339 12.288-0.018 0-0.036 0-0.054 0h-546.25zM101.12 123.75v491.162h433.306v-491.11h-433.306zM123.546 146.483h388.454v445.696h-388.454v-445.696zM446.976 809.984v0zM220.416 809.984h194.458v118.067h-194.458v-118.067z" />
<glyph unicode="&#xe913;" glyph-name="bag" d="M619.213 627.354v77.978c0 45.21-22.938 82.074-50.893 82.074h-110.387c-27.955 0-50.893-36.915-50.893-82.074v-77.978h212.173zM704.051 688.896h76.288v-631.552h-547.891v631.552h89.754v118.17c0 27.802 22.989 50.534 50.944 50.534h280.064c28.006 0 50.893-22.733 50.893-50.534v-118.17zM967.526 690.33c31.078 0 56.474-22.835 56.474-50.637v-531.712c0-27.904-25.395-50.688-56.474-50.688h-111.104v633.037h111.104zM62.054 690.33h105.472v-633.037h-105.472c-34.15 0.051-62.054 22.784-62.054 50.739v531.661c0 27.802 27.904 50.637 62.054 50.637z" />
<glyph unicode="&#xe914;" glyph-name="baggage-fees" horiz-adv-x="1280" d="M1216.064 748.608h-0.007c0.046 0 0.091 0 0.137 0 35.083 0 63.553-28.313 63.806-63.36v-664.512c0-34.944-28.736-63.36-63.936-63.36h-125.696v791.232h125.696zM880 748.608v148.096c0 34.816-28.8 63.296-64 63.296h-351.993c-0.046 0-0.092 0-0.138 0-35.073 0-63.543-28.269-63.869-63.296v-148.096h-112.896v-791.296h688.832v791.296h-95.872zM63.936 748.608h108.8v-791.296h-108.8c-35.2 0-63.936 28.416-63.936 63.36v664.576c0 34.752 28.8 63.36 64 63.36zM719.808 571.712l-11.52-36.864c22.080-5.248 40.96-13.632 56.32-23.168l-17.92-52.096c-15.969 11.316-34.547 20.32-54.527 25.993l-1.281 0.311-29.504-94.72c58.944-27.456 81.088-54.272 81.088-98.56 0-73.664-55.808-112.64-125.312-112.64-6.336 0-13.184 0.512-18.944 1.024l-19.008-62.656-35.2 8.448 18.88 59.52c-26.89 6.359-50.599 16.319-72.095 29.531l1.055-0.603 16.832 52.16c22.656-14.72 46.336-26.88 71.616-33.216l33.664 110.592c-49.984 23.68-75.776 47.36-75.776 93.248 0 62.656 45.76 103.168 117.376 103.168 5.76 0 11.584 0 17.408-0.512l12.16 39.488 34.688-8.448zM685.056 282.624c0 20.544-9.472 33.216-41.6 49.024l-31.616-102.208h7.936c37.888 0 65.28 21.632 65.28 53.184zM594.56 447.552c0 25.792 19.456 44.736 56.32 44.736 2.624 0 5.76 0 8.448-0.512l-26.88-87.936c-30.016 14.72-37.888 26.88-37.888 43.712zM773.376 748.608h-266.752v60.16c0.326 35.027 28.796 63.296 63.869 63.296 0.046 0 0.092 0 0.138 0h138.745c35.2 0 64-28.48 64-63.296v-60.16z" />
<glyph unicode="&#xe915;" glyph-name="basic-economy" d="M512-64c-282.214 0-512 229.734-512 512s229.734 512 512 512c282.368 0 512-229.734 512-512s-229.632-512-512-512zM512 857.6c-225.894 0-409.6-183.757-409.6-409.6s183.706-409.6 409.6-409.6 409.6 183.757 409.6 409.6-183.706 409.6-409.6 409.6zM450.56 181.76v102.4h102.4v-102.4h-102.4zM450.56 386.56v307.2h102.4v-307.2h-102.4z" />
<glyph unicode="&#xe916;" glyph-name="booze" horiz-adv-x="717" d="M189.235 262.758c9.626 14.182 78.592 49.51 102.4 75.264 17.408 18.739 3.533 85.504 3.533 85.504l-45.158 205.21h-199.578l-45.158-205.312s-13.926-66.714 3.482-85.504c23.808-25.702 92.774-61.030 102.451-75.264 12.186-17.92 17.613-85.504 19.302-140.288 1.792-54.63 6.758-133.325-14.080-140.134-15.923-5.222-83.866-24.166-110.080-31.488-8.192-2.304-0.819-8.704-0.819-8.704s47.718-6.042 143.718-6.042h1.894c96.051 0 143.718 6.093 143.718 6.093s7.373 6.4-0.768 8.704c-26.266 7.322-94.157 26.266-110.080 31.488-20.838 6.81-15.872 85.504-14.131 140.186 1.741 54.784 7.168 122.368 19.354 140.288zM671.13 570.112c0 116.224-69.427 129.894-78.131 140.186-8.704 10.24-13.875 37.632-13.875 37.632v212.070h-123.341v-212.070s-5.171-27.341-13.824-37.632c-8.704-10.24-78.182-23.962-78.182-140.186 0-116.326 3.482-463.462 3.482-463.462s-6.963-75.264 8.704-106.035c15.565-30.822 22.528-34.202 22.528-34.202h237.926s6.963 3.379 22.528 34.202c15.616 30.771 8.704 106.035 8.704 106.035s3.482 347.136 3.482 463.462z" />
<glyph unicode="&#xe917;" glyph-name="calendar" d="M86.989 616.192v110.694h849.971v-110.694h-849.971zM86.989 114.074v415.13h849.971v-415.13h-849.971zM1023.949 62.669v715.622s-1.741 30.874-39.526 35.584c-38.707 0.307-158.106 0-158.106 0v63.181s-8.602 31.949-43.52 31.642c-38.861 0.051-43.52-31.642-43.52-31.642v-63.232h-185.754v63.232s-7.066 32.154-43.571 31.744c-36.403-0.461-43.52-31.642-43.52-31.642v-63.232h-181.76v63.13s-9.728 30.208-43.52 31.744c-33.792 1.536-43.52-31.642-43.52-31.642v-63.232s-122.778 0.768-158.106 0-39.526-39.578-39.526-39.578v-707.789s4.762-36.25 31.642-39.526c273.766-0.512 764.928-0.358 929.075 0 66.048 2.15 63.283 35.584 63.283 35.584z" />
<glyph unicode="&#xe918;" glyph-name="chat" d="M687.108 197.12l-168.837-189.209-171.578 189.209h-264.773c-45.243 0-81.92 36.677-81.92 81.92v573.44c0 45.243 36.677 81.92 81.92 81.92h860.16c45.243 0 81.92-36.677 81.92-81.92v-573.44c0-45.243-36.677-81.92-81.92-81.92zM204.8 524.8v-40.96h368.64v40.96zM204.8 688.64v-40.96h491.52v40.96z" />
<glyph unicode="&#xe919;" glyph-name="cocktails" horiz-adv-x="922" d="M488.55 473.446c-0.107 0-0.233-0.001-0.359-0.001-45.4 0-82.228 36.702-82.431 82.055v0.019c0 45.363 37.018 82.176 82.79 82.176 45.67 0 82.739-36.813 82.739-82.176-0.203-45.372-37.031-82.074-82.431-82.074-0.108 0-0.217 0-0.325 0.001h0.017zM820.378 960c-29.082 0-52.634-23.45-52.634-52.224 0-5.274 1.024-10.138 2.355-14.848l-196.301-207.155h-573.798l342.374-351.232v-347.904l-158.208-50.637h424.602l-155.341 49.715v351.744l339.61 348.314h-144.486l161.638 170.65c3.109-0.654 6.682-1.028 10.343-1.028 28.942 0 52.417 23.405 52.531 52.32v0.011c0 28.826-23.552 52.275-52.685 52.275z" />
<glyph unicode="&#xe91a;" glyph-name="connect-wifi" d="M602.47 789.35c-8.192-12.851-15.36-26.419-21.35-40.602-20.425 2.866-44.050 4.521-68.055 4.557h-0.041c-272.026 0-472.73-221.184-474.675-223.386-4.033-4.528-9.879-7.365-16.388-7.365-5.564 0-10.645 2.074-14.509 5.491l0.023-0.020c-4.545 3.946-7.403 9.734-7.403 16.188 0 5.495 2.071 10.506 5.475 14.296l-0.017-0.020c2.15 2.458 54.426 60.416 142.848 118.989 82.022 54.272 211.968 119.040 364.749 119.040 30.566 0 60.416-2.611 89.395-7.168zM579.43 539.443c-19.911 4.248-42.805 6.707-66.265 6.758h-0.039c-178.022 0-310.477-152.576-311.808-154.112-3.905-4.624-9.705-7.54-16.187-7.54-5.535 0-10.573 2.127-14.342 5.607l0.014-0.013c-4.505 4.208-7.314 10.184-7.314 16.816 0 5.665 2.049 10.852 5.447 14.859l-0.028-0.033c5.888 6.912 146.33 169.267 344.218 169.267 17.664 0 35.021-1.28 51.917-3.635 3.328-16.589 8.192-32.666 14.438-47.974zM348.518 246.784c-11.815 0.043-21.376 9.631-21.376 21.453 0 5.816 2.314 11.091 6.072 14.955l-0.005-0.005c3.43 3.43 84.429 84.070 187.494 84.070 103.578 0 176.333-78.694 179.405-82.022 3.443-3.77 5.553-8.81 5.553-14.342 0-6.293-2.729-11.949-7.069-15.848l-0.020-0.017c-3.797-3.438-8.858-5.542-14.41-5.542-6.292 0-11.953 2.702-15.886 7.010l-0.015 0.017c-0.614 0.666-63.386 67.994-147.558 67.994-85.299 0-156.16-70.656-156.877-71.322-3.901-3.952-9.318-6.4-15.307-6.4-0.001 0-0.002 0-0.002 0v0zM565.658 137.933c0-20.642-16.734-37.376-37.376-37.376s-37.376 16.734-37.376 37.376v0c0 20.642 16.734 37.376 37.376 37.376s37.376-16.734 37.376-37.376v0zM834.714 804.966c-89.603-0.087-162.217-72.701-162.304-162.295v-0.009c0.117-89.581 72.719-162.165 162.296-162.253h0.008c89.581 0.117 162.165 72.719 162.253 162.296v0.008c-0.117 89.581-72.719 162.165-162.296 162.253h-0.008zM834.662 453.376c-104.5 0.146-189.17 84.834-189.286 189.327v0.011c0.146 104.5 84.834 189.17 189.327 189.286h0.011c104.481-0.145 189.141-84.805 189.286-189.272v-0.014c-0.117-104.504-84.787-189.192-189.273-189.338h-0.014zM829.338 573.85l88.269 99.84c1.924 2.173 3.099 5.048 3.099 8.197 0 3.733-1.651 7.080-4.262 9.352l-0.015 0.013c-2.21 1.911-5.111 3.075-8.284 3.075-3.764 0-7.146-1.638-9.471-4.24l-0.011-0.012-71.578-80.896-31.642 27.802c-2.225 1.967-5.168 3.167-8.391 3.167-3.735 0-7.094-1.613-9.417-4.18l-0.010-0.011c-4.608-5.12-4.147-13.056 1.024-17.613l50.688-44.493z" />
<glyph unicode="&#xe91b;" glyph-name="delta-comfort" d="M161.28 53.043h351.949v57.549h-351.949v-57.549zM478.72 290.662h-249.856l-101.888 317.338c-6.776 28.751-32.214 49.822-62.573 49.822-4.786 0-9.45-0.524-13.937-1.517l0.426 0.079c-29.153-5.973-50.771-31.416-50.771-61.908 0-4.621 0.497-9.126 1.439-13.465l-0.076 0.416 116.224-363.469c0.666-6.349 2.048-12.442 4.045-18.278v-0.051l0.154-0.614c0.666-1.792 1.024-3.584 1.792-5.325 5.12-15.616 15.872-28.109 29.645-35.686 13.824-9.472 30.566-15.104 48.691-15.104h276.685c47.104 0 85.146 17.92 85.146 64.102s-38.093 83.61-85.146 83.61zM258.304 742.042c27.034 26.624 27.238 69.632 0.512 95.949-12.478 12.126-29.53 19.602-48.328 19.602-19.055 0-36.316-7.682-48.854-20.119l0.005 0.005c-12.614-12.235-20.442-29.341-20.442-48.276 0-18.658 7.601-35.54 19.875-47.72l0.004-0.004c26.726-26.317 70.246-26.112 97.229 0.512zM877.722 290.867h-92.467v53.402h92.467v91.853h53.76v-91.853h92.518v-53.402h-92.467v-91.853h-53.76v91.802zM648.448 380.979l75.776-268.8c0.116-1.101 0.183-2.379 0.183-3.672 0-18.929-14.227-34.535-32.571-36.708l-0.175-0.017c-1.384-0.187-2.984-0.294-4.61-0.294-18.5 0-33.763 13.858-35.974 31.76l-0.018 0.176-69.632 227.942-237.414-1.434c-58.368 0-79.514 48.896-87.142 76.493l-72.448 206.797c-8.653 24.678 9.779 77.21 60.006 77.21 64.358 0 80.128-42.854 93.286-76.39 0 0 67.328-194.765 68.301-197.325l197.12 1.178c15.872 0 41.062-17.408 45.312-36.864z" />
<glyph unicode="&#xe91c;" glyph-name="delta-one-suite" d="M0 729.6h1024v-563.2h-1024v563.2zM71.117 659.2v-422.4h881.715v422.4h-881.664zM112.998 332.032v44.8c29.030-11.776 53.862-17.664 74.496-17.664 14.49 0 25.856 3.123 34.202 9.37 7.587 5.535 12.46 14.394 12.46 24.392 0 0.371-0.007 0.74-0.020 1.107l0.002-0.053c0.007 0.253 0.012 0.551 0.012 0.85 0 7.925-2.976 15.155-7.872 20.633l0.026-0.030c-5.222 5.837-15.104 12.749-29.696 20.736l-18.022 9.728c-24.166 13.21-41.267 25.805-51.2 37.888-9.306 11.104-14.959 25.545-14.959 41.307 0 0.364 0.003 0.727 0.009 1.090l-0.001-0.055c0 21.504 8.192 38.861 24.525 51.917s37.888 19.61 64.768 19.61c25.979-0.393 50.998-3.656 75.015-9.485l-2.311 0.474v-41.882c-27.597 10.035-49.408 15.053-65.434 15.053-12.39 0-22.323-2.714-29.798-8.038-6.796-4.504-11.216-12.119-11.216-20.766 0-0.133 0.001-0.267 0.003-0.4v0.020c0-7.168 2.611-13.466 7.834-18.893s15.104-12.083 29.542-19.968l19.302-10.394c26.010-14.131 43.93-27.136 53.76-39.066 9.83-11.878 14.746-26.368 14.746-43.469 0-24.269-9.267-43.264-27.853-57.037-18.586-13.824-44.237-20.685-76.902-20.685-21.606 0-46.746 2.97-75.418 8.858zM436.122 329.728v23.040c0-0.87-19.968-27.034-53.453-28.211-17.869-0.614-49.306 6.195-59.648 17.152s-15.462 25.907-15.462 44.902v137.062h53.914v-124.16c0-22.016 26.931-30.157 30.822-30.157s28.314-6.195 41.165 23.757v130.56h53.914v-193.946h-51.2zM508.877 329.728v193.946h53.965v-193.946h-53.965zM514.458 554.854c-6.246 9.114-9.216 27.085 0 36.096s27.75 9.011 36.966 0c9.216-9.011 9.216-27.085 0-36.096s-30.72-9.062-36.966 0zM716.186 330.752c-9.003-2.956-19.41-4.902-30.193-5.417l-0.271-0.010c-46.746 0-70.144 21.197-70.144 63.59v102.093h-22.426v32.666c15.565-1.178 26.573 0.717 32.973 5.683s11.776 15.974 16.179 33.024h27.187v-38.707h42.854v-32.666h-42.854v-95.232c0-23.757 10.035-35.686 30.106-35.686 4.608 0 10.138 0.819 16.538 2.509v-31.846zM881.254 336.23c-25.651-7.27-35.584-10.906-58.573-10.906-33.382 0-59.75 9.165-79.053 27.546s-28.979 43.469-28.979 75.264c0 30.003 8.806 54.17 26.522 72.499 17.664 18.33 41.011 27.494 70.042 27.494 29.286 0 50.688-8.96 64.154-26.88s20.224-46.234 20.224-84.992h-124.109c3.635-36.966 24.576-55.45 62.874-55.45 18.125 0 24.166 4.096 46.899 12.186v-36.762zM770.765 445.798h71.782c0 33.075-10.957 49.664-32.973 49.664-22.323 0-35.328-16.589-38.81-49.664z" />
<glyph unicode="&#xe91d;" glyph-name="delta-one" d="M930.918 547.021v-50.176h-605.082v115.456c0 41.062 35.533 73.472 77.363 70.656l446.515-50.842c45.722-3.072 81.203-40.243 81.203-85.043zM141.005 496.845c-20.043 0.058-36.272 16.305-36.301 36.349v0.003c0 19.968 16.384 36.25 36.352 36.25h77.312v77.312c0 19.968 16.282 36.301 36.25 36.301s36.301-16.384 36.301-36.301v-113.613c-0.031-2.374-0.291-4.669-0.758-6.887l0.041 0.231v-0.614c-3.583-16.668-18.194-28.979-35.68-28.979-0.002 0-0.005 0-0.007 0h-113.51zM91.955 450.048h840.038c1.903 0.15 4.121 0.236 6.359 0.236 44.201 0 80.592-33.439 85.255-76.4l0.034-0.381c2.048-21.76-4.915-43.008-19.456-59.699-14.541-16.64-34.867-24.474-59.494-26.368h-865.434c-24.576 1.894-44.954 9.728-59.392 26.368-12.321 13.876-19.846 32.25-19.846 52.383 0 2.576 0.123 5.123 0.364 7.636l-0.025-0.32c4.671 43.338 41.051 76.784 85.243 76.784 2.254 0 4.488-0.087 6.698-0.258l-0.293 0.018zM151.296 171.008v46.592h721.408v-46.592h-721.408zM197.837 659.814c0-0.008 0-0.017 0-0.026 0-38.556-31.256-69.811-69.811-69.811-38.547 0-69.797 31.241-69.811 69.784v0.001c0 38.556 31.256 69.811 69.811 69.811s69.811-31.256 69.811-69.811v0z" />
<glyph unicode="&#xe91e;" glyph-name="delta-studio" d="M943.718 244.736v423.322c0 9.267-8.038 16.794-17.766 16.794h-820.378c-9.779 0-17.766-7.578-17.766-16.794v-423.322c0-9.216 8.038-16.794 17.766-16.794h820.378c9.779 0 17.766 7.578 17.766 16.794zM943.718 108.595v57.856c0 9.216-8.038 16.742-17.766 16.742h-59.187c-9.728 0-17.715-7.526-17.715-16.742v-57.856c0-9.216 7.987-16.742 17.715-16.742h59.187c9.728 0 17.766 7.526 17.766 16.742zM753.408 108.595v57.856c0 9.216-8.038 16.742-17.766 16.742h-59.136c-9.779 0-17.766-7.526-17.766-16.742v-57.856c0-9.216 7.987-16.742 17.766-16.742h59.136c9.779 0 17.766 7.526 17.766 16.742zM563.098 108.595v57.856c0 9.216-8.038 16.742-17.766 16.742h-59.136c-9.779 0-17.766-7.526-17.766-16.742v-57.856c0-9.216 7.987-16.742 17.766-16.742h59.136c9.779 0 17.766 7.526 17.766 16.742zM372.838 108.595v57.856c0 9.216-8.038 16.742-17.766 16.742h-59.136c-9.779 0-17.766-7.526-17.766-16.742v-57.856c0-9.216 8.038-16.742 17.766-16.742h59.085c9.779 0 17.766 7.526 17.766 16.742zM182.477 108.595v57.856c0 9.216-7.987 16.742-17.766 16.742h-59.136c-9.779 0-17.766-7.526-17.766-16.742v-57.856c0-9.216 8.038-16.742 17.766-16.742h59.136c9.779 0 17.766 7.526 17.766 16.742zM87.808 802.304v-57.754c0-9.267 8.038-16.794 17.766-16.794h59.136c9.779 0 17.766 7.526 17.766 16.742v57.856c0 9.216-7.987 16.794-17.766 16.794h-59.136c-9.779 0-17.766-7.578-17.766-16.794zM278.17 802.304v-57.754c0-9.267 8.038-16.794 17.766-16.794h59.085c9.779 0 17.766 7.526 17.766 16.742v57.856c0 9.216-8.038 16.794-17.766 16.794h-59.136c-9.779 0-17.766-7.578-17.766-16.794zM468.429 802.304v-57.754c0-9.267 7.987-16.794 17.766-16.794h59.136c9.779 0 17.766 7.526 17.766 16.742v57.856c0 9.216-8.038 16.794-17.766 16.794h-59.136c-9.779 0-17.766-7.578-17.766-16.794zM658.739 802.304v-57.754c0-9.267 7.987-16.794 17.766-16.794h59.136c9.779 0 17.766 7.526 17.766 16.742v57.856c0 9.216-8.038 16.794-17.766 16.794h-59.136c-9.779 0-17.766-7.578-17.766-16.794zM849.050 802.304v-57.754c0-9.267 7.987-16.794 17.715-16.794h59.187c9.728 0 17.766 7.526 17.766 16.742v57.856c0 9.216-8.038 16.794-17.766 16.794h-59.187c-9.728 0-17.715-7.578-17.715-16.794zM17.766 857.6h988.467c9.779 0 17.766-7.578 17.766-16.794v-769.997c0-9.216-7.987-16.794-17.766-16.794h-988.467c-9.779 0-17.766 7.578-17.766 16.794v770.048c0 9.165 7.987 16.742 17.766 16.742zM417.485 611.686c-8.038 4.403-14.694 0.563-14.694-8.499v-270.336c0-9.011 6.656-12.8 14.694-8.448l247.808 135.629c8.090 4.403 8.090 11.622 0 16.026l-247.808 135.629z" />
<glyph unicode="&#xe91f;" glyph-name="enable-wifi" horiz-adv-x="666" d="M75.264 925.133c-10.189 0-19.814-4.096-27.136-11.622-7.128-7.384-11.521-17.449-11.521-28.541 0-0.082 0-0.164 0.001-0.246v0.013l-1.843-872.294c0-10.906 4.045-21.146 11.469-28.826 7.27-7.526 16.896-11.725 27.136-11.776l478.566-0.973c21.35 0 38.707 18.125 38.758 40.397l1.843 872.294c0.001 0.106 0.002 0.232 0.002 0.358 0 11.060-4.372 21.098-11.483 28.481l0.012-0.013c-6.85 7.198-16.491 11.687-27.18 11.725l-478.625 1.024zM101.53 157.235l414.566-0.87 1.331 647.782-414.566 0.922-1.331-647.834zM526.49 135.322h-0.051l-435.354 0.922c-5.725 0.058-10.343 4.712-10.343 10.444 0 0.036 0 0.072 0.001 0.108v-0.006l1.382 668.774c0 2.816 1.126 5.478 3.072 7.424 1.885 1.863 4.463 3.027 7.313 3.072h0.009l435.354-0.922c5.734 0 10.394-4.71 10.342-10.547l-1.382-668.774c-0.005-2.898-1.177-5.521-3.072-7.424v0c-1.868-1.889-4.457-3.062-7.32-3.072h-0.002zM309.504 87.808c-15.159-0.905-27.111-13.42-27.111-28.726 0-15.27 11.895-27.762 26.925-28.716l0.084-0.004h0.102c0.046 0 0.1 0 0.154 0 15.75 0 28.518 12.768 28.518 28.518 0 0.054 0 0.108 0 0.162v-0.008c0.051 15.821-12.8 28.723-28.672 28.774zM309.504 9.728h-0.102c-0.009 0-0.020 0-0.032 0-13.624 0-25.95 5.561-34.831 14.537l-0.004 0.004c-8.839 8.924-14.3 21.207-14.3 34.765 0 27.239 22.042 49.329 49.263 49.408h0.109c27.199-0.116 49.203-22.192 49.203-49.408 0-0.018 0-0.036 0-0.054v0.003c0-13.21-5.171-25.6-14.49-34.816-8.876-8.919-21.16-14.438-34.734-14.438-0.029 0-0.058 0-0.086 0h0.004zM551.936-64h-0.154l-478.464 1.024c-19.712 0-38.195 7.987-52.070 22.323-13.148 13.618-21.25 32.183-21.25 52.641 0 0.177 0.001 0.355 0.002 0.532v-0.027l1.843 872.346c0 19.968 7.68 38.861 21.453 53.043 12.991 13.639 31.289 22.121 51.569 22.121 0.23 0 0.461-0.001 0.69-0.003h-0.035l478.413-1.024c19.712 0 38.246-7.987 52.122-22.323 13.722-14.234 21.248-33.126 21.197-53.146l-1.792-872.346c-0.102-41.472-33.075-75.162-73.523-75.162zM462.694 517.427c-12.228 12.216-25.737 23.154-40.306 32.594l-0.961 0.583c-33.587 21.76-68.608 33.28-101.376 33.28-32.87 0-67.072-11.622-98.816-33.485-23.706-16.384-37.888-32.768-38.502-33.485-2.061-2.42-3.314-5.582-3.314-9.037 0-4.054 1.726-7.704 4.482-10.258l0.009-0.008c2.316-2.132 5.42-3.438 8.829-3.438 3.984 0 7.551 1.784 9.946 4.597l0.015 0.018c0.102 0.102 12.902 14.848 33.843 29.184 18.944 13.005 48.896 28.467 83.456 28.467 67.174 0 123.085-57.6 123.648-58.163 2.379-2.536 5.752-4.116 9.493-4.116 3.642 0 6.934 1.497 9.295 3.909l0.002 0.002c2.466 2.468 4.004 5.863 4.045 9.618v0.008c0.001 0.065 0.002 0.142 0.002 0.218 0 3.687-1.444 7.037-3.796 9.516l0.006-0.006zM312.064 521.062c-53.862 0-91.955-40.448-93.542-42.24-1.999-2.135-3.226-5.014-3.226-8.179 0-3.733 1.707-7.066 4.383-9.264l0.021-0.017c2.299-1.945 5.297-3.127 8.572-3.127 3.824 0 7.272 1.613 9.7 4.195l0.006 0.007c0.358 0.358 32 33.843 74.086 33.843 42.291 0 77.978-33.946 78.336-34.304 2.41-2.293 5.678-3.704 9.275-3.704 3.492 0 6.673 1.329 9.065 3.508l-0.011-0.010c2.39 2.206 3.882 5.355 3.882 8.852 0 3.398-1.409 6.467-3.674 8.655l-0.003 0.003c-1.741 1.741-43.366 41.779-96.87 41.779zM317.44 467.251c-31.181 0-52.992-22.886-53.914-23.859-2.071-2.173-3.346-5.121-3.346-8.367 0-3.809 1.755-7.208 4.501-9.433l0.023-0.018c2.401-2 5.517-3.214 8.918-3.214 3.931 0 7.483 1.623 10.023 4.235l0.003 0.003c0.154 0.205 15.053 15.36 33.792 15.36 19.2 0 36.045-15.616 36.198-15.77 5.222-4.966 13.773-5.069 19.046-0.205 2.477 2.231 4.027 5.449 4.027 9.028 0 3.482-1.467 6.622-3.816 8.835l-0.006 0.006c-0.973 1.024-24.678 23.398-55.45 23.398zM318.464 413.44c-7.451 0-13.491-6.040-13.491-13.491s6.040-13.491 13.491-13.491v0c7.451 0 13.491 6.040 13.491 13.491s-6.040 13.491-13.491 13.491v0z" />
<glyph unicode="&#xe920;" glyph-name="entertainment" d="M647.782 124.672h-7.731v85.094c9.086 11.664 17.338 24.83 24.19 38.807l0.591 1.334c23.501 40.346 37.734 89.6 37.734 143.616 0 133.939-85.35 242.586-190.618 242.586-105.216 0-190.515-108.646-190.515-242.586 0-54.016 14.336-103.475 37.786-143.77 7.219-14.438 15.155-28.006 24.678-39.987v-85.094h-7.68c-240.077 0-294.246-112.486-294.246-112.486h860.058s-54.221 112.486-294.246 112.486zM0 908.8v-614.605h232.346v60.006h-170.394v494.643h900.096v-494.643h-141.21v-60.006h203.162v614.605h-1024z" />
<glyph unicode="&#xe921;" glyph-name="fees" horiz-adv-x="614" d="M505.6 941.312l-25.702-81.664c47.306-11.282 88.997-28.979 126.725-52.446l-1.797 1.041-39.68-115.558c-35.072 25.651-79.411 45.517-123.802 58.368l-65.382-210.227c130.765-60.723 179.814-120.269 179.814-218.368 0-163.43-123.75-249.856-277.862-249.856-14.029 0-29.184 1.178-42.035 2.355l-42.035-138.957-78.234 18.688 41.984 131.942c-59.654 14.112-112.249 36.219-159.931 65.542l2.337-1.337 37.376 115.61c50.176-32.717 102.758-59.546 158.771-73.574l74.752 245.248c-110.95 52.429-168.141 105.011-168.141 206.592 0 138.906 101.581 228.864 260.352 228.864 12.851 0 25.702 0 38.554-1.178l26.829 87.603 77.107-18.688zM428.493 300.288c0 45.568-20.992 73.574-92.211 108.595l-70.042-226.509h17.51c84.070 0 144.742 47.872 144.742 117.914zM227.686 665.754c0-37.376 17.51-64.205 84.070-96.922l59.546 195.072c-5.837 1.178-12.8 1.178-18.688 1.178-81.715 0-124.928-42.035-124.928-99.277z" />
<glyph unicode="&#xe922;" glyph-name="fine-dining" d="M910.131 120.781c5.427-6.554 15.923-16.384 26.778-16.384 11.264 0 21.043 10.496 25.498 16.128l-20.736 313.446 4.608 4.506c0.819 0.87 12.595 13.824 24.269 43.213 20.275 50.995 24.525 111.104 24.525 152.525 0 64.205-19.046 111.514-35.021 139.878-9.582 17.414-20.97 32.376-34.229 45.443l-0.023 0.023 1.434-391.834v-0.461l-17.101-306.483zM936.909 75.059c-30.771 0-51.302 29.542-53.555 32.922l-2.714 4.096 17.664 316.416-1.536 408.627c0 0.029 0 0.064 0 0.099 0 7.117 3.631 13.387 9.141 17.057l0.075 0.047c3.082 2.072 6.877 3.307 10.96 3.307 2.968 0 5.784-0.653 8.311-1.822l-0.123 0.051c14.848-6.758 39.168-30.106 60.058-67.226 17.715-31.437 38.81-83.763 38.81-154.419 0-132.198-38.912-193.587-52.634-211.098l20.582-310.682-2.509-4.045c-0.819-1.382-20.992-33.28-52.531-33.28zM688.896 120.115c6.195-6.81 18.125-17.101 29.696-17.101 11.366 0 22.374 10.24 27.802 16.691l-18.79 404.070 11.571 2.509c49.51 10.752 52.224 43.776 52.378 46.95l-12.698 231.117v2.15c-1.481-0.003-2.935-0.022-4.385-0.056l0.237 0.004h-6.246c-2.048 0.051-5.274 0.102-7.168-0.154-0.034-0.364-0.054-0.787-0.054-1.215 0-0.095 0.001-0.19 0.003-0.284v0.014l3.174-186.88h-31.334l-7.885 186.778-0.051 1.792h-3.482l-3.072-0.051h-3.174c-0.593-0.008-1.294-0.012-1.995-0.012-1.603 0-3.2 0.023-4.792 0.069l0.234-0.005-0.102-1.792v-0.563l-7.885-186.266h-30.976l3.174 186.931c0.002 0.079 0.003 0.173 0.003 0.267 0 0.429-0.020 0.853-0.058 1.272l0.004-0.054c-1.519 0.157-3.283 0.247-5.068 0.247-0.739 0-1.474-0.015-2.205-0.046l0.105 0.003-3.072-0.051h-3.123c-0.064 0-0.139 0-0.215 0-1.383 0-2.761 0.019-4.135 0.056l0.203-0.004v-1.792l-0.051-0.768-12.698-230.451c0.358-4.25 4.403-36.352 52.48-47.258l11.366-2.56-17.715-403.558zM718.592 75.059c-30.362 0-52.736 28.621-55.142 31.898l-3.021 3.994 17.203 391.168c-29.645 9.421-44.954 26.112-52.736 39.168-5.72 9.127-9.409 20.061-10.178 31.793l-0.011 0.207v0.512l12.698 231.322c0.051 6.656 0.973 16.128 7.731 22.733 7.014 6.861 16.026 6.656 22.016 6.554h8.243c6.861 0.102 16.845 0.307 24.934-5.632 7.322 5.888 16.384 5.734 22.528 5.632h8.243c6.195 0.102 15.36 0.256 22.733-5.786 8.090 6.093 18.227 5.888 25.088 5.786h8.346c5.888 0.102 14.899 0.307 21.914-6.554 6.81-6.656 7.68-16.077 7.731-22.733l12.698-231.219v-0.41c0-1.587-0.256-16.026-9.83-32.307-7.731-13.158-23.040-29.901-53.094-39.168l18.176-390.656-2.56-3.84c-2.304-3.328-22.886-32.461-53.658-32.461zM394.189 575.539c0-17.050-66.714-41.779-171.264-41.779-104.448 0-171.213 24.73-171.213 41.779 0 16.998 66.714 41.779 171.213 41.779 104.55 0 171.264-24.781 171.264-41.779zM93.952 618.906c-38.246-10.701-58.47-25.702-58.47-43.366 0-38.298 94.31-58.368 187.443-58.368 48.64 0 94.464 5.325 129.024 14.95 38.246 10.701 58.47 25.702 58.47 43.418 0 38.298-94.31 58.317-187.494 58.317-48.589 0-94.413-5.325-128.973-14.95zM388.813 468.48c-28.877-45.21-84.173-68.71-164.352-69.632-84.941 4.966-142.336 32.154-170.701 80.742-39.936 68.454-14.592 164.71 1.894 211.507 33.28-25.446 102.656-37.376 168.448-37.376 47.616 0 92.57 6.144 126.669 17.152 18.432 5.99 31.642 12.749 40.96 19.712 16.077-49.818 40.704-153.293-3.021-222.003zM263.168 177.869c2.527-1.743 5.655-2.784 9.027-2.784 5.645 0 10.608 2.919 13.463 7.329l0.038 0.063c1.723 2.59 2.75 5.772 2.75 9.194 0 5.7-2.849 10.735-7.201 13.759l-0.055 0.036c-3.328 2.202-6.298 7.014-8.96 13.722 20.429-2.56 39.014-6.656 54.682-12.186 25.6-9.062 35.174-19.302 35.174-23.603 0-4.352-9.523-14.592-35.174-23.654-28.109-9.882-65.792-15.36-106.086-15.36-40.346 0-78.029 5.478-106.086 15.36-25.651 9.062-35.226 19.302-35.226 23.654 0 4.301 9.574 14.541 35.226 23.552 12.8 4.557 27.546 8.141 43.674 10.701-1.956-5.478-4.793-10.195-8.383-14.225l0.037 0.043c-3.009-3.026-4.868-7.197-4.868-11.803 0-4.529 1.798-8.637 4.719-11.651l-0.004 0.004c2.93-3.047 7.041-4.94 11.595-4.94 4.478 0 8.528 1.831 11.444 4.785l0.002 0.002c8.602 8.704 15.514 22.477 20.89 41.626l0.922 0.102 0.41 4.966c4.403 17.408 7.629 38.81 9.728 64.512 2.867 35.942 2.56 68.198 2.406 75.878 5.171-0.512 10.496-0.87 15.872-1.178l0.512-0.051h2.714c-0.41-10.189-1.28-42.496 1.024-77.568 2.662-38.707 9.216-92.262 35.84-110.285zM107.366 749.619c30.976 10.035 72.448 15.565 116.787 15.565s85.811-5.53 116.787-15.565c32.461-10.496 39.066-21.299 39.066-23.603 0-2.355-6.656-13.158-39.066-23.654-30.976-10.035-72.448-15.565-116.787-15.565s-85.811 5.53-116.787 15.565c-32.461 10.496-39.066 21.299-39.066 23.654 0 2.304 6.656 13.107 39.066 23.552zM439.552 633.754c-6.627 36.51-16.049 68.758-28.397 99.515l1.21-3.413c-4.915 46.95-99.84 68.403-188.211 68.403-47.616 0-92.57-6.042-126.669-17.101-46.746-15.104-59.648-35.328-61.491-50.995-11.37-25.572-21.131-55.636-27.77-86.855l-0.544-3.052c-14.592-70.758-8.346-132.096 18.074-177.51 28.211-48.486 78.336-79.155 149.248-91.597-0.166-0.89-0.261-1.914-0.261-2.96 0-0.148 0.002-0.295 0.006-0.441v0.022c0.87-34.304-1.229-80.282-7.373-115.507-23.45-2.867-45.056-7.629-63.232-14.029-47.206-16.64-57.139-39.014-57.139-54.886s9.933-38.298 57.139-54.938c31.386-11.059 72.858-17.152 116.736-17.152 43.827 0 85.299 6.093 116.736 17.152 47.206 16.64 57.088 39.066 57.088 54.938s-9.882 38.246-57.088 54.886c-21.514 7.45-46.529 12.82-72.436 15.072l-1.19 0.083c-5.12 32.102-6.861 75.059-5.018 113.971v0.154c73.728 7.117 126.566 34.97 157.133 83.046 29.082 45.67 36.966 107.315 23.45 183.194z" />
<glyph unicode="&#xe923;" glyph-name="first-class" d="M272.64 937.472c-14.056 13.922-33.402 22.524-54.758 22.524-21.61 0-41.164-8.808-55.265-23.030l-0.005-0.005c-14.274-14.114-23.113-33.698-23.113-55.347 0-21.343 8.592-40.68 22.505-54.74l-0.007 0.007c14.050-13.892 33.377-22.473 54.707-22.473 21.636 0 41.21 8.829 55.315 23.081l0.006 0.007c14.258 14.112 23.088 33.686 23.088 55.322 0 21.33-8.581 40.657-22.48 54.714l0.007-0.007zM868.096 336.794l-8.397 19.712-1.536 0.154-336.691-1.536c-80.947 0-127.539 79.002-143.053 111.206 0 0-102.656 162.816-122.88 195.021-30.054 47.974-0.512 107.008 56.32 107.008 48.845 0 68.352-31.642 105.472-87.552 0 0 150.221-210.432 160.102-225.434h309.35c18.022 0 46.49-19.968 51.302-42.291l85.658-308.224c0.147-1.321 0.231-2.853 0.231-4.405 0-21.477-16.067-39.2-36.837-41.807l-0.207-0.021c-1.519-0.199-3.276-0.313-5.060-0.313-21.093 0-38.471 15.904-40.798 36.374l-0.017 0.188-73.011 241.92zM758.118 297.37c18.842 0 93.696-14.131 93.696-107.315s-74.854-107.366-93.696-107.366h-449.843c-21.666 3.593-40.001 15.615-51.852 32.516l-0.167 0.252-0.358 0.205-0.461 0.768c-2.773 3.982-5.294 8.528-7.338 13.325l-0.189 0.499c-40.192 74.291-221.082 414.003-230.758 435.046-27.136 59.546-17.357 86.067-2.816 108.493 14.541 22.528 37.069 38.093 63.386 43.725 54.067 11.622 89.242-19.968 119.296-76.851l191.642-341.914 55.654-1.331h313.856zM700.621 34.202c18.255-0.73 32.778-15.706 32.778-34.074s-14.523-33.344-32.712-34.072l-0.066-0.002h-330.035c-18.011 1.018-32.231 15.873-32.231 34.048s14.22 33.030 32.141 34.044l0.090 0.004h330.035z" />
<glyph unicode="&#xe924;" glyph-name="flatbed-seat" d="M0 729.6h120.883v-320h903.117v-227.584h-120.883v106.65h-782.285v-106.65h-120.832v547.584zM304.026 478.874h-133.376s-21.299 122.726 66.714 122.726c87.962 0 66.662-122.726 66.662-122.726zM353.331 478.874v122.726h670.669v-122.726h-670.72z" />
<glyph unicode="&#xe925;" glyph-name="food-drinks" d="M387.072 210.995v-94.208c-0.191-2.7-2.428-4.817-5.159-4.817-0.076 0-0.152 0.002-0.228 0.005h0.011l-47.923 0.102c-2.97 0-5.478 2.355-5.478 5.12l-0.205 313.344c-0.154 0.512-62.515 228.147 0.512 332.339 37.274 61.338 55.398 37.376 58.47 33.638v-330.701l-0.102-41.626 0.102-213.197zM168.448 596.48c0-59.034 5.786-59.034-55.757-57.651l1.229-423.168c0-2.816-2.509-5.12-5.478-5.12l-47.872-0.102c-3.072 0-5.53 2.304-5.53 5.12l-1.28 423.014c-51.917-1.382-53.76-6.912-53.76 28.518v13.619l0.154 15.36 11.315 194.662c0 3.686 4.454 15.36 8.243 15.36s7.68-11.622 7.68-15.36l-2.458-170.906 11.981-3.686 12.493 3.891h0.205l3.84 166.4c0 8.038 4.096 19.712 7.936 19.763 3.84 0 7.987-11.674 8.038-19.712l2.662-166.605 12.134-3.686 12.083 3.738 1.741 166.605c0 8.038 4.147 19.712 7.936 19.712s7.987-11.622 7.987-19.661l4.71-166.502h0.358l12.493-3.84 12.032 3.789-3.482 170.957c0 3.738 4.352 15.411 8.141 15.411s7.782-11.622 7.834-15.36l12.339-194.611zM972.288 161.024h-138.035v212.224c106.138 10.752 189.747 120.064 189.747 252.877 0 55.398-14.336 108.032-41.37 152.218-6.554 10.701-16.742 16.896-27.597 16.896h-275.968c-10.906 0-21.146-6.195-27.648-16.896-27.136-44.186-41.421-96.819-41.421-152.218 0-132.813 83.661-242.074 189.747-252.826v-212.326h-137.984c-9.523 0-17.254-9.472-17.254-21.146s7.731-21.146 17.254-21.146h310.477c9.574 0 17.254 9.472 17.254 21.146s-7.68 21.146-17.254 21.146zM986.573 586.854h-339.098c-1.89 11.76-2.97 25.316-2.97 39.125 0 0.051 0 0.102 0 0.153v-0.008c0 47.616 12.8 91.494 34.509 126.874h276.019c21.658-35.328 34.458-79.309 34.458-126.874 0-13.414-1.024-26.573-2.97-39.27z" />
<glyph unicode="&#xe926;" glyph-name="galley" horiz-adv-x="614" d="M569.549 84.019v-138.701c-0.35-3.949-3.642-7.022-7.652-7.022-0.118 0-0.235 0.003-0.352 0.008l0.017-0.001-70.451 0.154c-4.403 0.051-8.090 3.43-8.090 7.578l-0.307 460.954c-0.205 0.819-92.006 335.667 0.819 488.96 54.682 90.266 81.408 54.989 86.016 49.51v-486.554l-0.256-61.184 0.256-313.702zM247.808 651.059c0-86.835 8.55-86.835-81.971-84.787l1.741-622.592c0-4.147-3.584-7.526-8.090-7.526l-70.4-0.154c-4.506 0-8.141 3.328-8.141 7.526l-1.792 622.438c-76.39-2.048-79.104-10.24-79.104 41.984l-0.051 19.917 0.205 22.63 16.691 286.413c0 5.478 6.502 22.682 12.134 22.682 5.581 0 11.264-17.152 11.264-22.63l-3.584-251.443 17.613-5.427 18.33 5.632h0.307l5.734 244.992c0 11.827 6.042 29.030 11.622 29.030 5.632 0 11.776-17.152 11.776-28.979l3.994-245.094 17.869-5.478 17.766 5.53 2.56 245.094c0 11.878 6.144 29.030 11.674 29.082 5.632 0 11.776-17.203 11.776-28.979l6.861-244.941h0.563l18.432-5.632 17.613 5.53-5.12 251.392c0.051 5.581 6.4 22.733 12.032 22.733s11.52-17.152 11.52-22.682l18.227-286.208z" />
<glyph unicode="&#xe927;" glyph-name="launch-wifi" d="M914.534 470.016l109.466-384.358v-2.56c0-21.248-17.408-38.554-38.912-38.554h-946.176c-0.031 0-0.067 0-0.103 0-21.362 0-38.693 17.259-38.809 38.594v3.185l1.126 3.072 139.674 381.389c2.068 19.698 18.587 34.918 38.66 34.918 0.016 0 0.033 0 0.049 0h153.393v-36.352h-153.395c0 0 0 0-0.001 0-1.216 0-2.202-0.986-2.202-2.202 0-0.018 0-0.036 0.001-0.054v0.003-3.226l-1.126-2.97-138.906-379.392c0.4-0.411 0.959-0.666 1.578-0.666 0.021 0 0.042 0 0.063 0.001h946.173c0.005 0 0.011 0 0.016 0 0.758 0 1.426 0.383 1.822 0.965l0.005 0.008-108.954 382.771v2.509c0 0 0 0 0 0.001 0 1.216-0.986 2.202-2.202 2.202-0.018 0-0.036 0-0.054-0.001h-183.447v36.403h183.45c20.48 0 37.274-15.77 38.81-35.686zM361.984 655.206l-25.754 25.805 175.974 176.589 175.923-176.64-25.754-25.805-131.994 132.454v-497.869h-36.352v497.869l-132.045-132.454z" />
<glyph unicode="&#xe928;" glyph-name="lavatory" d="M897.126 602.266c-4.972 9.846-15.008 16.48-26.593 16.48-3.477 0-6.815-0.598-9.916-1.696l0.208 0.064c29.184-122.112 72.192-256.41 108.186-381.645h-105.165c-21.798-144.858-37.59-234.593-54.626-323.886l9.468 59.643h-79.718c-7.514 29.365-23.289 119.088-37.808 209.231l-7.299 54.961h-105.165c35.994 125.286 79.002 259.584 108.134 381.696-2.881 1.025-6.203 1.617-9.664 1.617-11.579 0-21.61-6.627-26.507-16.295l-0.078-0.169c-13.107-33.229-22.528-65.382-33.587-101.837-5.786-19.046-27.443-94.771-44.032-130.816l-48.026 13.21c2.355 16.026 7.936 31.846 10.24 39.322 13.619 44.186 42.547 139.571 56.576 185.958 17.869 59.187 37.632 116.941 102.144 126.208 15.616 2.253 40.499 3.84 66.765 4.198h0.256l7.936 0.102 7.885-0.051h3.84v-0.051c24.934-0.512 48.282-2.048 63.181-4.198 64.512-9.216 84.326-67.021 102.195-126.208 13.978-46.387 44.186-141.824 57.805-185.958 2.304-7.475 7.885-23.296 10.24-39.322l-48.026-13.21c-16.589 36.045-39.526 111.77-45.261 130.816-11.059 36.454-20.48 68.608-33.587 101.837zM862.413 850.842c0-46.148-37.41-83.558-83.558-83.558s-83.558 37.41-83.558 83.558v0c0 46.148 37.41 83.558 83.558 83.558s83.558-37.41 83.558-83.558v0zM410.624 662.221c11.264-40.448 3.789-115.712-0.563-180.224-3.584-52.224-7.68-78.541-10.906-105.728h-54.989v190.464c0 7.834 3.584 40.448-24.883 38.4-13.568-5.12-10.752-25.6-12.032-36.096-1.894-15.821-1.69-32.87-3.021-48.077-13.517-154.522-29.645-307.149-45.056-459.776-2.56-25.446-2.048-60.058-5.99-89.958h-89.754c-3.994 29.901-3.43 64.512-5.99 89.958-15.462 152.627-31.539 305.254-45.056 459.776-1.382 15.206-1.126 32.256-3.072 48.128-1.229 10.394 1.536 30.976-11.981 36.045-28.518 2.048-24.934-30.566-24.934-38.4v-190.464h-54.989c-3.226 27.187-7.322 53.555-10.906 105.728-4.403 64.512-11.776 139.776-0.614 180.224 11.93 42.906 67.328 70.298 106.496 75.11 22.426 2.765 58.931 4.198 95.898 4.198s73.472-1.434 95.949-4.198c39.168-4.813 94.566-32.205 106.496-75.11zM291.84 850.842c0-46.162-37.422-83.584-83.584-83.584s-83.584 37.422-83.584 83.584v0c0 46.148 37.41 83.558 83.558 83.558s83.558-37.41 83.558-83.558v0z" />
<glyph unicode="&#xe929;" glyph-name="main-cabin" horiz-adv-x="819" d="M112.794-64h434.842v72.243h-434.842v-72.243zM499.507 223.232h-276.326l-66.202 410.010c-8.707 35.089-39.93 60.687-77.132 60.687-43.829 0-79.36-35.531-79.36-79.36 0-5.165 0.493-10.215 1.436-15.105l-0.080 0.498 68.966-456.653c0.819-7.936 2.458-15.616 4.966-22.989v-0.102l0.256-0.717c0.768-2.202 1.229-4.608 2.15-6.707 6.298-19.61 19.558-35.328 36.659-44.8 17.050-11.93 37.734-19.046 60.16-19.046h321.638c58.163 0 105.267 22.528 105.267 80.589 0 58.010-38.502 93.594-102.451 93.696zM352.256 814.746c15.601 15.494 25.257 36.956 25.257 60.673 0 23.386-9.388 44.579-24.602 60.015l0.010-0.010c-15.309 15.233-36.418 24.65-59.727 24.65-23.638 0-45.015-9.685-60.377-25.304l-0.011-0.012c-15.601-15.494-25.258-36.956-25.258-60.674 0-23.36 9.368-44.532 24.552-59.965l-0.011 0.011c33.024-33.075 86.784-32.768 120.166 0.666zM795.699 23.194l-110.899 337.818c-5.274 24.525-36.352 46.336-56.013 46.336l-184.781-1.382c-1.178 3.123-44.288 247.962-44.288 247.962-6.4 46.592-10.086 97.69-91.904 96-78.49-1.638-93.798-60.826-90.88-97.126l44.8-270.131c12.032-66.765 35.584-96.051 107.622-96.051l232.602-1.843 103.424-272.589c2.526-22.656 21.571-40.112 44.692-40.112 1.915 0 3.802 0.12 5.653 0.352l-0.221-0.023c22.924 2.974 40.449 22.375 40.449 45.87 0 1.715-0.093 3.408-0.275 5.075l0.018-0.206z" />
<glyph unicode="&#xe92a;" glyph-name="plane" d="M624.077 13.978l103.834 68.096-8.96 497.664 279.040 182.784c15.748 10.462 25.987 28.125 25.987 48.179 0 31.842-25.813 57.655-57.655 57.655-11.787 0-22.748-3.537-31.879-9.608l0.212 0.133-278.938-182.784-452.608 207.104-103.936-68.096 309.197-301.005-200.602-131.43-104.755 66.355-103.014-67.584 142.234-110.592 44.595-174.694 103.117 67.584-19.046 122.47 200.653 131.43 152.525-403.661z" />
<glyph unicode="&#xe92b;" glyph-name="plane2" d="M949.709 532.838h-342.784l-201.062 401.562h-94.362l104.806-401.562h-318.822l-54.63 123.392h-42.854l27.853-197.786-27.853-197.837h42.854l54.63 123.341h318.72l-104.806-401.613h94.362l201.062 401.613h342.784c0.015 0 0.033 0 0.051 0 41.115 0 74.445 33.33 74.445 74.445 0 41.097-33.301 74.416-74.391 74.445h-0.003z" />
<glyph unicode="&#xe92c;" glyph-name="plates" d="M550.758 761.344c176.547 0 319.667-143.12 319.667-319.667s-143.12-319.667-319.667-319.667v0c-176.533 0-319.642 143.108-319.642 319.642s143.108 319.642 319.642 319.642v0zM550.758 227.328c118.309 0.146 214.178 96.014 214.323 214.309v0.014c-0.146 118.319-96.008 214.2-214.307 214.374h-0.017c-118.337-0.146-214.229-96.037-214.374-214.36v-0.014c0.117-118.349 96.026-214.258 214.363-214.374h0.011zM550.758 636.262c107.422-0.146 194.466-87.189 194.611-194.597v-0.014c-0.117-107.434-87.177-194.495-194.6-194.611h-0.011c-107.422 0.146-194.466 87.189-194.611 194.597v0.014c0.146 107.422 87.189 194.466 194.597 194.611h0.014zM1024 227.84v-87.552c-0.19-2.502-2.266-4.459-4.8-4.459-0.077 0-0.153 0.002-0.229 0.005h0.011l-44.493 0.154c-2.765 0-5.12 2.15-5.12 4.71l-0.205 291.021c-0.102 0.512-58.061 211.968 0.512 308.736 34.611 56.934 51.507 34.611 54.323 31.13v-307.2c0-17.664-0.154-31.181-0.154-38.605l0.154-197.99zM156.416 585.779c0-54.784 5.427-54.784-51.712-53.555l1.075-393.062c0-2.56-2.253-4.71-5.12-4.71l-44.442-0.102c-2.816 0-5.12 2.099-5.12 4.71l-1.126 393.011c-48.23-1.28-49.92-6.451-49.92 26.47l-0.051 12.646 0.154 14.234 10.547 180.838c0 3.43 4.096 14.285 7.68 14.285 3.482 0 7.066-10.803 7.066-14.336l-2.304-158.72 11.162-3.379 11.571 3.584h0.205l3.584 154.573c0 7.475 3.84 18.33 7.373 18.33 3.584 0 7.424-10.854 7.424-18.33l2.56-154.675 11.264-3.482 11.213 3.482 1.587 154.778c0 7.475 3.84 18.33 7.373 18.33s7.424-10.803 7.424-18.278l4.352-154.624h0.358l11.622-3.584 11.11 3.533-3.226 158.72c0 3.482 4.096 14.336 7.578 14.336 3.584 0 7.27-10.803 7.27-14.336l11.469-180.736z" />
<glyph unicode="&#xe92d;" glyph-name="power" horiz-adv-x="563" d="M222.054 441.139h-5.12c-61.286 16.589-153.139 72.704-158.566 251.034h-58.368v105.011h112.998v162.816h99.482v-162.765h118.733v162.765h99.379v-162.765h111.821v-105.062h-55.501c-5.427-173.619-95.642-231.424-158.925-249.754-0.154-5.325-0.256-10.598-0.256-15.718-0.046-2.46-0.072-5.361-0.072-8.268 0-14.573 0.658-28.993 1.947-43.231l-0.134 1.835c12.814-9.003 23.824-17.574 34.409-26.627l-0.617 0.515c40.96-36.506 65.024-83.712 65.024-146.79 0-60.006-22.938-93.594-71.885-132.813l-6.144-4.915c-22.323-17.869-26.112-23.142-26.112-34.304v-96.102h-105.882v96.154c0 51.968 20.685 80.742 65.792 116.838l6.144 4.915c26.368 21.146 32.256 29.696 32.256 50.227 0 30.72-9.933 50.176-29.645 67.738-5.581 4.966-39.936 29.184-48.128 38.349-20.634 22.938-23.45 52.941-22.835 117.504l0.205 13.414z" />
<glyph unicode="&#xe92e;" glyph-name="premium-boarding" d="M698.47 241.92c96.768 0 155.75 39.578 155.75 119.296 0 56.32-29.491 85.094-73.779 99.533 33.075 14.95 59.034 42.547 59.034 87.501 0 67.123-46.029 107.315-138.701 107.315h-138.598v-413.594h136.294zM313.088 379.238c98.56 0 164.045 47.923 164.045 141.414 0 89.907-60.774 134.912-159.846 134.912h-131.021v-413.594h100.864v137.216h25.958zM0 91.494v740.506h1024v-740.506h-1024zM698.214 433.306h-33.638v-113.92h34.765c38.042 0 60.16 18.534 60.16 56.32 0 37.734-20.992 57.6-61.286 57.6zM759.501 520.55c0 28.006-17.152 45.67-57.6 45.67h-37.325v-94.925h34.918c39.219 0 60.006 18.842 60.006 49.254zM310.682 566.221h-25.856v-132.915h24.064c45.619 0 70.861 21.606 70.861 68.096 0 43.213-23.398 64.819-69.12 64.819z" />
<glyph unicode="&#xe92f;" glyph-name="premium-extras" d="M120.986 672.973c-9.114 0-14.694-4.71-14.694-7.219v-321.894c0-2.56 5.632-7.219 14.694-7.219h782.029c9.114 0 14.694 4.608 14.694 7.168v321.997c0 2.56-5.632 7.168-14.694 7.168h-782.029zM903.014 314.778h-782.029c-20.48 0-36.506 12.8-36.506 29.082v321.894c0 16.282 16.026 29.030 36.506 29.030h782.029c20.48 0 36.506-12.8 36.506-29.030v-321.894c0-16.333-16.026-29.082-36.506-29.082zM114.79 745.318c-43.789-0.029-79.28-35.52-79.309-79.306v-405.763c0.058-43.767 35.537-79.229 79.306-79.258h794.422c43.771 0.029 79.251 35.49 79.309 79.252v405.766c-0.029 43.789-35.52 79.28-79.306 79.309h-794.422zM909.21 145.408h-794.419c-63.392 0.058-114.761 51.446-114.79 114.839v405.763c0.058 63.373 51.417 114.732 114.785 114.79h794.425c63.373-0.058 114.732-51.417 114.79-114.785v-405.766c-0.058-63.373-51.417-114.732-114.785-114.79h-0.006zM540.672 238.080c0 15.835-12.837 28.672-28.672 28.672s-28.672-12.837-28.672-28.672v0c0-15.835 12.837-28.672 28.672-28.672s28.672 12.837 28.672 28.672v0z" />
<glyph unicode="&#xe930;" glyph-name="premium-select" d="M990.31 225.485c3.282 2.108 7.289 3.36 11.587 3.36 8.060 0 15.091-4.403 18.821-10.934l0.056-0.106c2.069-3.457 3.292-7.625 3.292-12.080 0-8.232-4.178-15.488-10.529-19.764l-0.085-0.054c-1.843-1.178-34.304-21.658-80.23-21.658-17.715 0-37.376 3.021-58.010 11.315l-126.566 56.576c-7.322-30.618-30.464-51.661-65.126-59.392l-348.57 4.147c-6.605 2.816-32.614 2.458-59.904 43.008l-256.563 288.051c-17.101 27.494-32.307 81.101 2.406 112.896 54.528 49.818 108.032 0.256 141.158-42.701l214.477-220.979h275.814c43.622 0 80.384-29.798 93.491-70.758l143.821-67.072c53.606-23.040 98.765 4.915 100.608 6.144zM179.456 640.922c-19.405 42.394 10.65 81.766 56.064 81.766 21.35 0 44.134-29.338 82.586-66.253 0 0 181.35-166.656 182.272-169.062l244.429 1.126c14.336 0 30.208-8.397 43.827-25.907l158.003-120.934c13.824-15.206 14.336-32.819 0.666-45.67-15.053-14.182-38.298-3.84-59.443 12.237l-162.714 97.28-269.824-1.331c-55.194 0-88.064 29.696-108.544 57.702l-167.322 179.046zM334.95 88.422v55.091h317.85v-55.091h-317.85zM159.949 838.81c11.109-11.957 17.927-28.035 17.927-45.705 0-17.933-7.022-34.226-18.466-46.28l0.028 0.029c-11.013-11.876-26.701-19.284-44.118-19.284-17.171 0-32.66 7.2-43.614 18.745l-0.025 0.027c-11.109 11.957-17.927 28.035-17.927 45.705 0 17.933 7.022 34.226 18.466 46.28l-0.028-0.029c11.013 11.876 26.701 19.284 44.118 19.284 17.171 0 32.66-7.2 43.614-18.745l0.025-0.027z" />
<glyph unicode="&#xe931;" glyph-name="satellite" horiz-adv-x="666" d="M119.194 371.712l88.218-96.768 54.016-338.944h-217.856l75.622 435.712zM344.986 613.786l286.822-342.579c-103.066-108.288-315.648-41.882-474.88 148.378-159.232 190.157-204.8 432.128-101.786 540.416l258.253-308.429 118.17 113.664c-2.153 5.555-3.401 11.985-3.401 18.705 0 13.773 5.239 26.322 13.833 35.763l-0.038-0.043c7.444 8.16 18.123 13.26 29.993 13.26 12.884 0 24.365-6.009 31.793-15.377l0.064-0.084c7.384-9.067 11.858-20.76 11.858-33.499 0-13.817-5.262-26.404-13.892-35.868l0.038 0.042c-7.362-8.089-17.933-13.145-29.685-13.145-7.375 0-14.284 1.991-20.22 5.465l0.189-0.102-107.11-126.566z" />
<glyph unicode="&#xe932;" glyph-name="sky-priority-boarding" d="M682.547 399.36c102.4 0 170.496 48.64 170.496 143.462 0 91.136-63.181 136.704-166.298 136.704h-136.192v-419.328h104.96v139.162h26.982zM318.822 255.334c84.019 0 151.552 40.141 151.552 131.277 0 66.867-36.198 98.458-128.87 131.891-52.787 20.070-64.41 30.413-64.41 51.712 0 19.405 15.309 32.768 47.206 32.768 32.512 0 72.448-12.134 110.438-34.048l15.974 87.552c-36.813 17.613-72.397 27.955-127.59 27.955-80.998 0-144.845-43.162-144.845-124.006 0-69.274 36.864-96.614 121.498-128.87 59.494-22.477 71.782-33.382 71.782-57.088 0-24.883-20.838-37.683-50.893-37.683-42.342 0-90.829 15.821-134.349 38.861l-15.36-88.73-2.16 0.902c44.853-20.857 94.857-32.501 147.58-32.501 0.86 0 1.72 0.003 2.446 0.009zM0 107.776v724.224h1024v-724.224h-1024zM646.246 595.098v-133.018h24.064c45.722 0 70.963 21.606 70.963 68.147 0 43.264-23.45 64.87-69.12 64.87h-25.907z" />
<glyph unicode="&#xe933;" glyph-name="snacks" d="M605.235 699.085h123.494v107.315h62.413v-107.315h232.858l-10.752-88.934-363.315-317.491-44.698 406.426zM667.494 211.046l327.475 300.39-34.355-393.728-283.546-6.451-9.574 99.84zM378.726 201.677v-91.136c-0.216-2.591-2.373-4.613-5.001-4.613-0.078 0-0.155 0.002-0.232 0.005h0.011l-46.285 0.102c-2.918 0-5.325 2.202-5.325 4.915l-0.205 303.002c-0.154 0.512-60.467 220.672 0.512 321.434 36.045 59.238 53.606 36.096 56.627 32.461v-319.744l-0.154-40.243 0.154-206.182zM162.918 572.314c0-57.088 5.632-57.088-53.862-55.757l1.126-409.242c0-2.714-2.355-4.915-5.274-4.915l-46.285-0.102c-2.97 0-5.376 2.202-5.376 4.915l-1.178 409.139c-50.176-1.331-51.968-6.656-51.968 27.597l-0.102 13.107 0.154 14.848 10.957 188.262c0 3.584 4.301 14.899 7.987 14.899 3.635 0 7.373-11.264 7.424-14.848l-2.458-165.274 11.571-3.584 12.083 3.738h0.205l3.789 161.024c0 7.782 3.994 19.046 7.68 19.046s7.68-11.264 7.731-19.046l2.56-161.075 11.776-3.584 11.674 3.584 1.69 161.178c0 7.782 4.045 19.098 7.68 19.098 3.686 0 7.68-11.264 7.68-19.046l4.608-160.973h0.358l12.083-3.738 11.571 3.635-3.328 165.222c0 3.584 4.198 14.95 7.834 14.95 3.738 0 7.578-11.264 7.578-14.899l11.981-188.16z" />
<glyph unicode="&#xe934;" glyph-name="start-over" horiz-adv-x="870" d="M364.442 742.349c89.19 12.134 179.814-0.614 258.304-47.36 200.704-119.501 255.846-379.392 136.704-565.658-119.194-186.266-369.818-256.614-570.266-127.488-200.499 129.229-247.603 376.013-112.538 575.693l29.901-30.925c-106.547-170.65-62.618-403.968 108.032-510.669 170.65-106.598 406.221-60.672 512.051 119.296 105.83 180.019 47.309 402.944-126.618 504.064-84.582 49.152-157.184 58.88-235.213 47.821l185.19-186.726-30.259-30.515-232.96 235.008 232.909 235.11 30.259-30.515-185.549-187.136z" />
<glyph unicode="&#xe935;" glyph-name="usb" horiz-adv-x="512" d="M146.739 791.245l94.515 168.755 96.87-167.526-69.99-0.461-1.024-408.883c5.632 3.226 11.674 6.349 17.869 9.574 39.885 20.838 90.163 47.258 92.058 163.328h-49.152v143.309h141.466v-143.206h-43.878c-1.946-145.92-66.918-179.917-118.426-206.95-18.637-9.677-34.611-18.125-40.141-33.024l-0.512-213.76c35.533-9.83 61.44-42.496 61.44-81.613 0-46.95-37.325-84.736-83.61-84.736-46.221 0.202-83.613 37.718-83.613 83.967 0 0.27 0.001 0.54 0.004 0.81v-0.041c0 36.403 22.528 67.379 54.374 79.36l0.307 132.864c-16.538 9.37-32.358 15.667-46.797 21.606-64.154 25.754-107.674 43.264-108.544 194.56-34.948 10.564-59.957 42.478-59.957 80.232 0 0.179 0.001 0.359 0.002 0.538v-0.028c0 46.285 37.274 83.968 82.995 83.968s83.046-37.734 83.046-84.019c0-37.786-24.269-69.274-57.6-80.077 0.717-118.784 31.949-131.43 77.926-149.862 9.216-3.738 18.944-7.68 29.082-12.39l1.28 504.115-69.99-0.461z" />
<glyph unicode="&#xe936;" glyph-name="wifi" d="M828.429 386.964c-5.826 0.021-11.054 2.495-14.743 6.441l-0.018 0.019c-1.348 1.503-141.715 147.77-312.193 147.77-169.762 0-296.098-145.475-297.346-146.977-3.713-4.418-9.265-7.22-15.45-7.22-5.288 0-10.104 2.047-13.708 5.373l0.020-0.019c-4.293 4.003-6.965 9.697-6.965 16.021 0 5.403 1.957 10.349 5.198 14.165l-0.021-0.025c5.598 6.601 139.57 161.417 328.289 161.417 188.061 0 335.588-154.074 341.781-160.625 7.994-8.441 7.798-22.003-0.353-30.247-3.661-3.754-8.754-6.077-14.394-6.099h-0.005zM32.981 518.628c-0.021 0-0.021 0-0.043 0-5.28 0-10.1 1.951-13.784 5.164l0.021-0.021c-4.344 3.754-7.078 9.285-7.078 15.45 0 5.247 1.984 10.048 5.247 13.667l-0.021-0.021c2.095 2.302 51.889 57.634 136.28 113.472 78.182 51.744 202.065 113.472 347.738 113.472 145.42 0 274.947-61.533 357.933-113.176 89.489-55.643 144.369-110.684 146.672-112.971 3.671-3.687 5.952-8.773 5.952-14.405 0-5.786-2.422-11.018-6.29-14.743l-0.012-0.011c-3.779-3.634-8.928-5.878-14.591-5.878-5.828 0-11.095 2.362-14.905 6.183l-0.001 0.001c-0.501 0.501-54.395 54.482-139.972 107.534-78.182 48.492-199.706 106.285-334.788 106.285-259.447 0-450.863-210.904-452.766-213.015-3.837-4.297-9.406-6.992-15.61-6.992-0.021 0-0.022 0-0.046 0h0.003zM344.426 255.681c-11.22 0.136-20.262 9.262-20.262 20.497 0 5.514 2.178 10.515 5.72 14.206l-0.010-0.011c3.203 3.297 80.49 80.187 178.759 80.187 98.782 0 168.173-75.035 171.071-78.238 3.297-3.603 5.33-8.436 5.33-13.726 0-5.994-2.592-11.385-6.706-15.103l-0.021-0.021c-3.628-3.288-8.441-5.288-13.75-5.288-6.022 0-11.427 2.592-15.182 6.731l-0.021 0.021c-0.557 0.601-60.495 64.84-140.718 64.84-81.33 0-148.973-67.341-149.625-67.988-3.712-3.761-8.884-6.099-14.58-6.099-0.005 0-0.010 0-0.015 0h0.001zM551.538 151.855c0-19.696-15.969-35.665-35.665-35.665s-35.665 15.969-35.665 35.665v0c0 19.696 15.969 35.665 35.665 35.665s35.665-15.969 35.665-35.665v0z" />
<glyph unicode="&#xe937;" glyph-name="screen" d="M56.678 279.808v414.618h910.643v-414.618h-910.643zM512 189.798c-0.377-0.016-0.819-0.026-1.263-0.026-17.221 0-31.181 13.96-31.181 31.181s13.96 31.181 31.181 31.181c0.444 0 0.886-0.009 1.326-0.028l-0.063 0.002c16.668-0.697 29.918-14.379 29.918-31.155s-13.249-30.458-29.855-31.153l-0.063-0.002zM939.162 780.8h-854.323c-46.848 0-84.838-37.99-84.838-84.838v-467.763c0-46.848 37.99-84.838 84.838-84.838h854.323c46.848 0 84.838 37.99 84.838 84.838v467.763c0 46.848-37.99 84.838-84.838 84.838zM700.314 512.307l5.222 67.584h-35.686l5.222-67.584h25.242zM646.298 512.307l5.274 67.584h-35.738l5.274-67.584h25.19zM561.203 417.485c15.565 18.176 23.245 45.722 23.245 82.586 0 16.998-2.714 31.744-8.294 44.032-5.53 12.339-13.517 21.76-23.808 28.262-10.394 6.451-22.528 9.728-36.352 9.728-19.61 0-35.123-5.837-46.49-17.51-11.418-11.674-17.101-27.546-17.101-47.514 0-18.637 4.71-33.178 14.080-43.622s22.221-15.667 38.502-15.667l-0.094 0.003c0.652-0.023 1.307-0.035 1.964-0.035 8.141 0 15.861 1.805 22.45 4.896l0.224 0.113c7.018 3.864 12.851 9.615 16.928 16.783h1.536c-0.666-14.592-3.277-26.061-7.782-34.355l-0.108-0.219c-4.258-7.911-11.029-14.268-19.502-18.11-8.55-3.891-19.405-5.786-32.614-5.786-7.885 0-15.36 0.87-22.528 2.662v-31.744c5.734-1.178 14.131-1.792 25.19-1.792 31.488 0 54.989 9.114 70.554 27.29zM70.656 293.888v386.56h882.586v-386.56h-882.586zM516.71 550.349c-0.351 0.019-0.763 0.030-1.176 0.030-7.234 0-13.701-3.283-17.993-8.44l-0.031-0.038c-4.608-5.632-6.912-13.824-6.912-24.32 0-9.062 2.099-16.23 6.298-21.504 4.198-5.325 10.547-7.936 19.046-7.936 8.038 0 14.899 2.56 20.634 7.834 5.188 4.378 8.48 10.86 8.55 18.113v0.012c0.012 0.375 0.019 0.816 0.019 1.258 0 9.197-3.005 17.691-8.086 24.556l0.079-0.112c-4.509 6.411-11.874 10.548-20.206 10.548-0.078 0-0.157 0-0.235-0.001h0.012z" />
<glyph unicode="&#xe938;" glyph-name="screen2" d="M57.856 280.934v412.416h908.288v-412.416h-908.339zM512 189.798c-0.377-0.016-0.819-0.026-1.263-0.026-17.221 0-31.181 13.96-31.181 31.181s13.96 31.181 31.181 31.181c0.444 0 0.886-0.009 1.326-0.028l-0.063 0.002c16.668-0.697 29.918-14.379 29.918-31.155s-13.249-30.458-29.855-31.153l-0.063-0.002zM939.162 780.8h-854.323c-46.848 0-84.838-37.99-84.838-84.838v-467.763c0-46.848 37.99-84.838 84.838-84.838h854.323c46.848 0 84.838 37.99 84.838 84.838v467.763c0 46.848-37.99 84.838-84.838 84.838zM710.502 520.96h-21.248l-4.403 56.832h30.054l-4.403-56.832zM665.037 520.96h-21.197l-4.403 56.832h30.054l-4.454-56.832zM594.739 420.352h-33.28v91.085l0.358 15.002 0.512 16.384c-3.642-3.768-7.397-7.329-11.303-10.721l-0.217-0.185-18.074-14.541-16.026 20.019 50.688 40.397h27.341v-157.44zM490.957 420.352h-33.28v91.085l0.307 15.002 0.512 16.384c-3.632-3.771-7.371-7.332-11.259-10.726l-0.21-0.18-18.074-14.541-16.077 20.019 50.688 40.397h27.392v-157.44zM69.581 292.71h884.787v388.762h-884.736v-388.762z" />
<glyph unicode="&#xe939;" glyph-name="3-screen" d="M58.47 281.6v411.034h907.059v-411.034h-907.059zM512 189.798c-0.377-0.016-0.819-0.026-1.263-0.026-17.221 0-31.181 13.96-31.181 31.181s13.96 31.181 31.181 31.181c0.444 0 0.886-0.009 1.326-0.028l-0.063 0.002c16.668-0.697 29.918-14.379 29.918-31.155s-13.249-30.458-29.855-31.153l-0.063-0.002zM939.162 780.8h-854.323c-46.848 0-84.838-37.99-84.838-84.838v-467.763c0-46.848 37.99-84.838 84.838-84.838h854.323c46.848 0 84.838 37.99 84.838 84.838v467.763c0 46.848-37.99 84.838-84.838 84.838zM757.914 509.082h-18.739l-3.891 50.278h26.573l-3.891-50.278zM717.773 509.082h-18.739l-3.942 50.278h26.624l-3.942-50.278zM652.544 429.414c-9.728-7.424-23.552-11.162-41.574-11.162-15.155 0-28.518 2.509-40.192 7.526v25.037c5.376-2.765 11.315-4.966 17.818-6.656 6.451-1.741 12.851-2.56 19.2-2.56 9.728 0 16.896 1.587 21.504 4.915 4.659 3.328 6.963 8.602 6.963 15.872 0 6.554-2.662 11.213-7.987 13.926-5.325 2.765-13.824 4.096-25.498 4.096h-10.598v22.579h10.752c10.803 0 18.688 1.382 23.706 4.25 4.966 2.816 7.424 7.68 7.424 14.49 0 10.547-6.554 15.821-19.763 15.821-4.608 0-9.216-0.768-13.926-2.304-4.762-1.536-9.984-4.147-15.77-7.885l-13.619 20.275c12.646 9.165 27.802 13.722 45.414 13.722 14.336 0 25.754-2.918 34.099-8.755 7.615-5.109 12.56-13.686 12.56-23.417 0-0.336-0.006-0.67-0.018-1.003l0.001 0.048c0.007-0.247 0.010-0.537 0.010-0.828 0-8.195-3.009-15.688-7.981-21.434l0.035 0.041c-5.726-6.259-13.324-10.721-21.904-12.498l-0.265-0.046v-0.563c11.264-1.434 19.763-4.813 25.498-10.24 5.786-5.427 8.704-12.8 8.704-21.965 0-13.414-4.864-23.808-14.592-31.232zM540.058 421.939c-2.937-2.715-6.88-4.381-11.212-4.381-0.343 0-0.683 0.010-1.020 0.031l0.046-0.002c-0.331-0.023-0.717-0.036-1.107-0.036-4.33 0-8.285 1.604-11.303 4.251l0.020-0.017c-2.743 2.849-4.433 6.729-4.433 11.003 0 0.344 0.011 0.685 0.032 1.024l-0.002-0.046c0 5.325 1.434 9.37 4.301 12.083s7.014 4.096 12.493 4.096c0.3 0.019 0.651 0.030 1.005 0.030 4.296 0 8.217-1.603 11.198-4.244l-0.018 0.015c2.918-2.765 4.352-6.758 4.352-11.981 0.016-0.264 0.025-0.572 0.025-0.883 0-4.246-1.667-8.102-4.383-10.951l0.006 0.006zM473.958 429.414c-9.728-7.424-23.552-11.162-41.626-11.162-15.104 0-28.467 2.509-40.141 7.526v25.037c5.376-2.765 11.315-4.966 17.766-6.656 6.502-1.741 12.902-2.56 19.251-2.56 9.728 0 16.896 1.587 21.504 4.915s6.963 8.602 6.963 15.872c0 6.554-2.662 11.213-7.987 13.926-5.325 2.765-13.824 4.096-25.549 4.096h-10.547v22.579h10.752c10.752 0 18.688 1.382 23.654 4.25 5.018 2.816 7.475 7.68 7.475 14.49 0 10.547-6.554 15.821-19.814 15.821-4.557 0-9.216-0.768-13.926-2.304-6.018-2.115-11.229-4.78-16.005-8.036l0.235 0.152-13.619 20.275c12.698 9.165 27.853 13.722 45.414 13.722 14.438 0 25.805-2.918 34.15-8.755 7.586-5.102 12.511-13.654 12.511-23.357 0-0.357-0.007-0.712-0.020-1.066l0.002 0.051c0.008-0.264 0.012-0.575 0.012-0.886 0-8.169-2.989-15.639-7.933-21.377l0.036 0.043c-5.726-6.259-13.324-10.721-21.904-12.498l-0.265-0.046v-0.563c11.264-1.434 19.712-4.813 25.498-10.24s8.704-12.8 8.704-21.965c0-13.414-4.864-23.808-14.592-31.232zM357.888 420.147h-29.389v80.538l0.256 13.261 0.512 14.438c-3.229-3.318-6.567-6.462-10.038-9.455l-0.202-0.171-15.974-12.8-14.182 17.664 44.851 35.738h24.166v-139.213zM68.915 292.045h886.17v390.144h-886.17v-390.144z" />
<glyph unicode="&#xe93a;" glyph-name="adults-only" d="M711.68 539.494h36.352v-72.55h72.602v-36.352h-72.602v-72.602h-36.352v72.602h-72.602v36.301h72.653v72.602zM321.024 335.411h-50.176v216.525l-54.17-20.787-5.478 39.578 65.485 30.208h44.339v-265.523zM385.587 404.019c0 29.44 19.61 53.402 50.586 69.837-27.853 15.309-41.165 34.918-41.165 62.362 0 42.342 37.632 69.427 89.805 69.427 54.886 0 87.45-28.262 87.45-67.84 0-27.085-16.896-47.104-42.342-62.362 32.922-15.667 50.995-35.328 50.995-70.195 0-41.574-37.274-74.906-97.69-74.906-63.898 0-97.638 33.741-97.638 73.728zM432.691 407.603c0-23.552 21.504-40.448 51.354-40.448 29.030 0 48.998 16.538 48.998 38.451 0 24.32-14.848 35.328-61.184 52.582-23.552-12.186-39.219-29.798-39.219-50.586zM441.293 536.986c0-20.378 13.722-31.744 52.173-46.643 19.968 11.776 32.512 27.034 32.512 45.056 0 20.48-16.435 34.97-42.752 34.97-25.856 0-41.984-14.541-41.984-33.382zM512-64c-282.778 0-512 229.222-512 512s229.222 512 512 512 512-229.222 512-512-229.222-512-512-512zM512-20.429c258.72 0 468.454 209.734 468.454 468.454s-209.734 468.454-468.454 468.454v0c-258.706 0-468.429-209.723-468.429-468.429s209.723-468.429 468.429-468.429v0z" />
<glyph unicode="&#xe93b;" glyph-name="cancel-flight" d="M876.8 356.659l-94.925-94.976-52.224 52.224 94.925 94.976-94.976 94.976 52.224 52.224 94.976-94.976 94.976 94.976 52.224-52.224-94.976-94.976 94.976-94.925-52.224-52.224-94.976 94.925zM520.141 108.339l-127.386 336.077-166.963-109.619 15.974-102.042-85.811-56.32-37.325 145.408-118.63 92.058 85.76 56.32 87.296-55.142 167.014 109.722-257.792 250.47 86.528 56.73 377.19-172.032 232.192 152.371c7.427 4.942 16.554 7.886 26.368 7.886 26.524 0 48.027-21.502 48.027-48.027 0-16.71-8.534-31.427-21.482-40.030l-0.177-0.111-232.192-152.474 7.885-414.566-86.477-56.781z" />
<glyph unicode="&#xe93c;" glyph-name="car-rental" d="M837.325 291.584c-0.046 0-0.102 0-0.157 0-40.21 0-72.806 32.597-72.806 72.806 0 0.234 0.001 0.468 0.003 0.701v-0.036c0 40.96 32.307 73.472 72.96 73.472 39.629 0 73.011-32.512 73.011-73.472-1.024-40.96-33.382-73.472-73.011-73.472zM184.525 291.584c-0.031 0-0.068 0-0.105 0-40.21 0-72.806 32.597-72.806 72.806 0 0.234 0.001 0.468 0.003 0.701v-0.036c0 40.96 32.358 73.472 73.011 73.472s73.011-32.512 73.011-73.472-32.358-73.472-73.011-73.472zM221.082 842.65h580.813l77.158-263.424h-735.13l77.158 263.424zM965.581 554.035c-4.851 6.76-10.333 12.616-16.483 17.692l-0.157 0.126-85.504 290.765c-8.219 26.766-32.609 45.933-61.513 46.182h-582.941c-28.16 0-54.272-18.893-61.542-46.182l-84.48-290.765c-5.171-4.198-10.394-10.496-16.64-17.818-37.53-46.182-56.32-105.011-56.32-164.915v-204.646c0-17.818 14.592-32.512 32.307-32.512h87.603v-117.555c0-26.266 20.838-47.258 46.95-47.258h36.454c26.112 0 46.95 20.992 46.95 47.258v117.555h523.469v-117.555c0-26.266 20.838-47.258 46.899-47.258h36.506c26.112 0 46.95 20.992 46.95 47.258v117.555h74.035c25.037 0 45.875 20.992 45.875 46.182v192.051c-2.048 58.778-20.838 117.606-58.368 163.789z" />
<glyph unicode="&#xe93d;" glyph-name="contact-us" d="M703.232 726.938c-0.512 0.87-0.768 1.741-1.331 2.56-73.472 97.485-126.003 36.659-162.253-49.613-34.304-82.074-40.499-156.262 66.202-141.312 31.232 1.741 51.661-9.984 49.306-39.424-7.475-35.891-22.784-73.626-44.339-110.234-21.76-36.762-47.206-68.352-74.957-92.262-24.627-16.384-44.8-4.096-58.317 23.91-38.758 100.762-100.557 59.29-155.699-10.547-58.061-73.37-85.76-148.787 35.072-165.837 1.126-0.102 1.894 0 3.072 0 112.64-24.934 248.883 57.037 332.288 196.71 81.715 140.595 87.45 299.469 10.957 386.048zM512 873.472c-234.65 0-425.472-190.874-425.472-425.472s190.822-425.421 425.472-425.421 425.472 190.822 425.472 425.472c0 234.547-190.822 425.421-425.472 425.421zM512-64c-282.317 0-512 229.683-512 512 0 282.368 229.632 512 512 512s512-229.632 512-512c0-282.317-229.632-512-512-512z" />
<glyph unicode="&#xe93e;" glyph-name="deltas-fleet" d="M650.445 471.552l-36.301-112.947 0.256-0.512-0.461-0.102-24.576-76.595-69.376-215.962-104.858-27.034-10.803 273.408-3.738 95.334-202.598-52.173-18.125-104.499-104.090-26.88 11.418 153.805-87.194 128.307 104.090 26.829 68.352-82.176 202.547 52.224-138.24 262.656-34.509 65.331 104.96 27.034 317.44-290.714 281.702 72.602c3.754 0.987 8.064 1.554 12.506 1.554 7.66 0 14.927-1.686 21.449-4.706l-0.316 0.131c13.312-5.939 23.91-17.254 27.904-32.154 1.015-3.731 1.597-8.015 1.597-12.435 0-22.997-15.777-42.309-37.097-47.703l-0.34-0.073-281.651-72.55zM1022.874 428.237c0.689-2.555 1.085-5.489 1.085-8.515 0-15.861-10.878-29.181-25.58-32.907l-0.235-0.050-194.048-50.022-89.805-279.757-72.192-18.586-4.864 122.778 82.79 257.843 37.683 9.728 28.672-26.317 194.048 49.971c2.683 0.742 5.764 1.169 8.945 1.169 15.852 0 29.23-10.594 33.439-25.089l0.061-0.246z" />
<glyph unicode="&#xe93f;" glyph-name="family" d="M892.877 0.154h-208.896v338.176c0 35.328-27.187 64.154-60.672 64.154h-214.528c-33.485 0-60.723-28.774-60.723-64.154v-337.254c0-0.205-72.346-0.512-217.088-0.922v546.867l381.030 342.426 380.826-342.221v-547.072zM408.781 1.075v337.254h214.528v-337.254h-214.528zM535.757 952.371c-5.16 4.721-12.061 7.614-19.638 7.614-1.453 0-2.881-0.106-4.277-0.312l0.158 0.019c-1.224 0.182-2.637 0.286-4.074 0.286-7.574 0-14.473-2.89-19.654-7.628l0.022 0.020-477.594-429.21c-6.586-6.115-10.693-14.821-10.693-24.486 0-7.861 2.717-15.087 7.263-20.791l-0.052 0.068c5.41-6.885 13.736-11.267 23.086-11.267 7.605 0 14.533 2.899 19.74 7.652l-0.023-0.021 20.224 18.176v-492.339c0-35.328 27.238-64.154 60.723-64.154h761.856c33.485 0 60.723 28.774 60.723 64.154v492.493l20.429-18.33c5.184-4.733 12.112-7.631 19.717-7.631 9.35 0 17.677 4.382 23.039 11.204l0.048 0.063c4.494 5.636 7.211 12.863 7.211 20.723 0 9.665-4.107 18.371-10.672 24.467l-0.021 0.019-477.594 429.21z" />
<glyph unicode="&#xe940;" glyph-name="flight-schedules" d="M0 663.347v219.853h1024v-219.853h-1024zM0 457.728v109.875h154.726v-109.875h-154.726zM217.395 457.728v109.875h154.624v-109.875h-154.624zM434.637 457.728v109.875h154.778v-109.875h-154.778zM651.878 457.728v109.875h154.726v-109.875h-154.726zM869.274 457.728v109.875h154.726v-109.875h-154.726zM0 235.008v110.438h154.726v-110.438h-154.726zM217.395 235.008v110.438h154.624v-110.438h-154.624zM434.637 235.008v110.438h154.778v-110.438h-154.778zM651.878 235.008v110.438h154.726v-110.438h-154.726zM869.274 235.008v110.438h154.726v-110.438h-154.726zM0 12.8v109.875h154.726v-109.875h-154.726zM217.344 12.8v109.875h154.624v-109.875h-154.624zM434.637 12.8v109.875h154.778v-109.875h-154.726zM651.93 12.8v109.875h154.726v-109.875h-154.726zM869.274 12.8v109.875h154.726v-109.875h-154.726z" />
<glyph unicode="&#xe941;" glyph-name="headphones" d="M871.219 415.744c2.048 66.867-3.328 236.39-101.222 345.498-60.262 67.123-146.79 101.171-257.178 101.171-110.336 0-196.915-34.048-257.229-101.222-97.894-109.056-103.526-278.579-101.478-345.446h37.12c13.824 0 25.088-11.264 25.088-25.088v-355.84c0-13.875-11.264-25.139-25.088-25.139h-92.928c-54.244 0.029-98.217 43.966-98.304 98.193v1.186l23.194 209.664c0.7 48.865 36.91 89.064 83.945 95.987l0.535 0.065c-0.87 26.368-0.563 66.765 5.222 113.408 13.466 108.8 50.842 200.038 108.032 263.834 69.478 77.517 167.731 116.787 291.891 116.787 124.211 0 222.413-39.27 291.84-116.787 57.19-63.795 94.464-155.034 107.878-263.834 5.734-46.797 5.99-87.245 5.12-113.664 46.643-7.168 82.534-47.309 83.149-95.795l23.194-209.664v-1.178c0-54.17-44.032-98.304-98.253-98.304h-92.979c-13.824 0-25.088 11.264-25.088 25.139v355.84c0 13.875 11.264 25.139 25.088 25.139h38.4zM120.525 373.197c-30.364-0.575-54.76-25.313-54.784-55.754v-1.18l-23.245-209.459c0.631-30.32 25.348-54.659 55.755-54.682h22.274v321.075zM147.558 373.197v-321.075h26.317v321.075h-26.317zM876.442 373.197h-26.317v-321.075h26.317v321.075zM903.475 373.197v-321.075h22.272c30.409 0.022 55.125 24.362 55.756 54.623l0.001 0.059-23.194 209.459v1.178c-0.024 30.444-24.42 55.182-54.73 55.756l-0.054 0.001z" />
<glyph unicode="&#xe942;" glyph-name="honeymoon" d="M303.821 678.502c21.35 17.92 49.562 17.562 72.397-0.819 0.41-67.738-3.84-155.238-38.093-236.544-7.945-18.456-17.858-34.362-29.781-48.521l0.238 0.29c-4.608-5.427-11.52-11.981-18.739-12.237-6.144-0.102-13.67 4.096-21.504 12.442-18.534 19.456-28.826 44.288-37.171 68.25-15.206 43.418-24.371 90.317-28.16 143.36-0.649 8.237-1.456 22.188-2.105 36.181l-0.148 4.011c35.533-5.734 69.376 5.274 103.066 33.587zM351.642 774.195c-31.334 4.096-60.006-5.939-90.112-31.693-9.953-8.981-23.202-14.476-37.736-14.476-6.278 0-12.317 1.025-17.958 2.918l0.398-0.116c0.563 17.818 3.482 74.957 5.53 114.586l1.894 36.454 0.512 9.779h151.552c2.56-42.598 5.837-98.918 6.861-121.856-5.751 1.703-12.831 3.241-20.067 4.298l-0.874 0.105zM385.741 13.773h-58.778l1.792 306.637c33.843 17.766 64.256 59.238 86.067 117.606 22.682 60.672 35.174 137.421 35.174 215.962 0 71.834-4.301 124.109-8.038 170.24-2.918 35.226-5.427 65.638-5.427 97.69 0 11.11-2.816 19.456-8.704 25.344-13.312 13.466-40.038 13.158-93.235 12.493-13.21-0.154-28.16-0.358-44.851-0.358h-1.485c-16.691 0-31.642 0.205-44.8 0.358-53.248 0.666-79.923 1.024-93.286-12.493-5.837-5.939-8.704-14.234-8.704-25.344 0-32.051-2.509-62.464-5.376-97.69-3.789-46.131-8.090-98.406-8.090-170.24 0-162.714 52.582-302.080 125.747-335.77l-2.355-304.435h-58.982c-21.044-0.288-37.993-17.414-37.993-38.499 0-0.145 0.001-0.29 0.002-0.435v0.022c0-21.402 17.050-38.861 37.99-38.861h193.331c20.89 0 37.939 17.408 37.939 38.912 0.001 0.123 0.002 0.268 0.002 0.414 0 21.067-16.92 38.182-37.912 38.498h-0.030zM740.301 678.502c21.35 17.92 49.613 17.562 72.448-0.819 0.358-67.738-3.84-155.238-38.093-236.544-7.96-18.457-17.89-34.363-29.83-48.518l0.236 0.288c-4.557-5.427-11.52-11.981-18.739-12.237-6.144-0.102-13.619 4.096-21.504 12.442-18.483 19.456-28.826 44.288-37.171 68.25-15.155 43.418-24.371 90.317-28.16 143.36-0.649 8.237-1.456 22.188-2.105 36.181l-0.148 4.011c35.584-5.734 69.376 5.274 103.066 33.587zM788.173 774.195c-31.334 4.096-60.006-5.939-90.163-31.693-9.953-8.981-23.202-14.476-37.736-14.476-6.278 0-12.317 1.025-17.958 2.918l0.398-0.116c0.614 17.818 3.533 74.957 5.581 114.586l1.843 36.454 0.512 9.779h151.603c2.56-42.598 5.837-98.918 6.81-121.856-5.734 1.7-12.796 3.238-20.013 4.298l-0.876 0.106zM822.221 13.773h-58.778l1.843 306.637c33.792 17.766 64.256 59.238 86.016 117.606 22.733 60.672 35.226 137.421 35.226 215.962 0 71.834-4.301 124.109-8.090 170.24-2.918 35.226-5.376 65.638-5.376 97.69 0 11.11-2.867 19.456-8.704 25.344-13.312 13.466-40.090 13.158-93.286 12.493-13.158-0.154-28.16-0.358-44.8-0.358h-1.536c-16.64 0-31.59 0.205-44.8 0.358-53.248 0.666-79.872 1.024-93.286-12.493-5.837-5.939-8.704-14.234-8.704-25.344 0-32.051-2.458-62.464-5.376-97.69-3.789-46.131-8.090-98.406-8.090-170.24 0-162.714 52.582-302.080 125.798-335.77l-2.355-304.435h-59.034c-21.022-0.316-37.941-17.431-37.941-38.498 0-0.145 0.001-0.291 0.002-0.436v0.022c0-21.402 16.998-38.861 37.939-38.861h193.331c20.941 0 37.99 17.408 37.99 38.912 0.001 0.123 0.002 0.268 0.002 0.413 0 21.085-16.949 38.211-37.965 38.499h-0.027z" />
<glyph unicode="&#xe943;" glyph-name="hotel" d="M312.576 572.416c0-46.007-37.296-83.302-83.302-83.302s-83.302 37.296-83.302 83.302v0c0 46.007 37.296 83.302 83.302 83.302s83.302-37.296 83.302-83.302v0zM808.909 617.267c85.792 0 155.341-69.548 155.341-155.341 0-0.018 0-0.036 0-0.054v0.003-80.64h-525.824v236.032h370.483zM369.664 381.235h-191.181c-21.392 0-38.733 17.341-38.733 38.733s17.341 38.733 38.733 38.733v0h152.474v125.696c0 21.392 17.341 38.733 38.733 38.733s38.733-17.341 38.733-38.733v0-164.454c0-21.377-17.33-38.707-38.707-38.707v0zM899.994 350.566h124.006v-223.283h-123.904v99.328h-776.192v-99.328h-123.904v591.565c0 34.215 27.737 61.952 61.952 61.952s61.952-27.737 61.952-61.952v0-368.282h776.192z" />
<glyph unicode="&#xe944;" glyph-name="hotels2" d="M104.55 699.136v-360.704h814.285v116.736c-0.256 78.848 105.472 78.848 105.165 0v-313.19h-103.987v71.68h-813.056v-72.858h-106.957v558.336c-0.051 74.752 104.448 74.752 104.55 0zM165.427 615.168h596.173c56.218 0.154 89.19-36.147 89.088-84.992v-124.928h-685.261v209.92z" />
<glyph unicode="&#xe945;" glyph-name="log-out" d="M0 841.421h300.8v-146.944h-158.259v-615.322h616.653v170.957h142.541v-314.112h-901.734v905.421zM572.416 960h451.584v-447.59l-143.923-0.614v220.16l-251.238-259.482-88.064 87.501 251.29 258.202h-219.648v141.824z" />
<glyph unicode="&#xe946;" glyph-name="luxury" d="M171.11 857.6l-171.11-168.755 512-650.445 512 650.445-171.11 168.755h-681.779zM230.4 806.4h563.2l-14.541-76.8h-534.118l-14.541 76.8zM856.32 780.8l65.28-75.264-76.8-1.536 11.52 76.8zM102.4 705.536l65.28 75.264 11.52-76.8-76.8 1.536zM826.061 652.8l95.539-1.28-256-331.52 160.461 332.8zM281.6 652.8h486.4l-243.2-486.4-243.2 486.4zM102.4 651.52l95.539 1.28 160.461-332.8-256 331.52z" />
<glyph unicode="&#xe947;" glyph-name="overhead-video" d="M457.574 458.547c0-73.237-59.371-132.608-132.608-132.608s-132.608 59.371-132.608 132.608v0c0 73.237 59.371 132.608 132.608 132.608s132.608-59.371 132.608-132.608v0zM457.574 780.8h566.426v-375.501h-192.87v45.363h147.558v284.826h-475.802v-87.808h-45.363v133.12zM649.933 128.819h-649.933c1.024 6.042 2.253 11.878 3.789 17.203 18.893 68.096 106.803 111.565 168.909 119.194 35.635 4.454 93.594 6.707 152.269 6.656 58.675 0.051 116.582-2.202 152.269-6.656 62.106-7.68 150.016-51.098 168.909-119.194 1.536-5.325 2.714-11.162 3.789-17.203zM667.187 632.73c0.049 0 0.107 0 0.164 0 73.237 0 132.608-59.371 132.608-132.608s-59.371-132.608-132.608-132.608c-19.841 0-38.664 4.357-55.565 12.168l0.822-0.341c25.070 26.549 40.48 62.452 40.48 101.954 0 51.531-26.224 96.937-66.054 123.601l-0.538 0.339c22.034 17.149 50.101 27.494 80.584 27.494 0.038 0 0.075 0 0.113 0h-0.006zM667.136 305.152c-21.453 3.072-50.534 5.325-82.944 6.707 25.805 1.075 54.272 1.638 82.944 1.587 58.726 0 116.685-2.253 152.32-6.656 62.106-7.68 150.016-51.098 168.96-119.245 1.434-5.325 2.662-11.162 3.738-17.203h-149.146c-26.163 76.954-113.306 125.798-175.872 134.81zM497.254 613.888c0.015 0 0.033 0 0.051 0 73.237 0 132.608-59.371 132.608-132.608s-59.371-132.608-132.608-132.608c-19.797 0-38.582 4.338-55.454 12.116l0.823-0.34c25.070 26.549 40.48 62.452 40.48 101.954 0 51.531-26.224 96.937-66.054 123.601l-0.538 0.339c22.034 17.149 50.101 27.494 80.584 27.494 0.038 0 0.075 0 0.113 0h-0.006zM497.152 286.208c-21.453 3.072-50.534 5.325-82.944 6.707 25.805 1.024 54.272 1.638 82.944 1.587 58.726 0 116.685-2.253 152.32-6.656 62.106-7.68 150.016-51.098 168.96-119.245 1.434-5.325 2.662-11.162 3.738-17.203h-149.146c-26.163 76.954-113.306 125.798-175.872 134.81z" />
<glyph unicode="&#xe948;" glyph-name="pets" d="M553.677 840.192c21.606 80.896 88.218 133.12 148.838 116.89 60.518-16.23 92.058-94.771 70.502-175.616-21.658-80.589-88.269-132.915-148.838-116.736-60.57 16.282-92.16 94.874-70.502 175.565zM799.181 615.987c31.078 77.67 103.526 121.549 161.741 98.253 58.061-23.398 80.026-105.165 48.998-182.733-31.13-77.568-103.475-121.498-161.69-98.253-58.266 23.347-80.128 105.165-49.050 182.733zM512 14.643c-12.237 0-24.627-0.256-37.478-1.638-89.395-9.37-222.72-72.192-305.664-8.602-41.267 31.693-96 105.267-62.669 186.675 27.136 66.202 124.211 86.528 169.83 132.096 95.437 95.642 71.629 249.139 235.981 258.458 164.352-9.37 140.544-162.816 236.032-258.406 45.568-45.619 142.643-65.946 169.83-132.147 33.28-81.408-21.453-154.982-62.72-186.675-82.893-63.59-216.269-0.768-305.613 8.602-10.001 1.060-21.605 1.664-33.351 1.664-1.469 0-2.937-0.009-4.402-0.028l0.223 0.002zM470.323 840.192c21.658-80.691-9.933-159.283-70.451-175.514-60.57-16.23-127.181 36.096-148.838 116.736-21.658 80.794 9.933 159.386 70.4 175.667 60.621 16.128 127.232-36.096 148.838-116.89zM224.768 615.936c31.13-77.568 9.267-159.386-48.998-182.733-58.214-23.245-130.56 20.685-161.69 98.253-31.027 77.568-9.062 159.334 48.998 182.733 58.266 23.296 130.662-20.582 161.69-98.253z" />
<glyph unicode="&#xe949;" glyph-name="settings" d="M512 207.872c-132.591 0-240.077 107.486-240.077 240.077s107.486 240.077 240.077 240.077v0c132.608 0 239.974-107.52 239.974-239.974 0-132.659-107.366-240.128-239.923-240.128zM1024 356.045v183.962h-147.814c-9.786 38.075-24.055 71.504-42.566 102.077l0.941-1.674 104.55 104.55-130.099 130.15-104.55-104.55c-28.9 17.556-62.327 31.824-97.788 41.048l-2.615 0.578v147.814h-184.013v-147.814c-35.84-9.114-69.581-23.142-100.506-41.626l-104.55 104.55-129.997-130.202 104.448-104.448c-17.512-28.916-31.732-62.365-40.9-97.845l-0.572-2.609h-147.968v-183.962h147.866c9.062-35.942 23.142-69.632 41.626-100.506l-104.499-104.55 130.048-130.048 104.448 104.448c28.944-17.627 62.431-31.902 97.974-41.061l2.583-0.565v-147.763h184.013v147.763c38.051 9.738 71.468 24.029 101.992 42.604l-1.64-0.927 104.602-104.55 130.099 130.099-104.55 104.55c17.609 28.929 31.882 62.397 41.058 97.915l0.568 2.591h147.814z" />
<glyph unicode="&#xe94a;" glyph-name="skymiles" d="M512.614 576l-129.894-200.038 129.894 62.464 129.894-62.464-129.894 200.038zM372.429 352.051h280.32l-140.134 59.238-140.186-59.238zM403.507 444.262l-24.166-37.171h-176.998l-25.293 37.171h226.458zM367.667 389.222l-24.166-37.171h-52.685l-25.293 37.171h102.093zM474.675 553.574l-24.166-37.12h-425.216l-25.293 37.171h474.675zM439.347 499.302l-24.166-37.12h-301.363l-25.293 37.12h350.822zM656.333 389.222h102.093l-25.293-37.171h-52.634l-24.166 37.171zM620.493 444.262h226.458l-25.293-37.171h-176.998l-24.166 37.171zM584.653 499.302h350.822l-25.293-37.12h-301.363l-24.166 37.12zM549.325 553.574h474.675l-25.293-37.12h-425.216l-24.115 37.171z" />
<glyph unicode="&#xe94b;" glyph-name="trip-insurance" d="M507.955 83.251c69.888 36.608 220.365 129.946 278.733 279.194 50.842 129.536 65.024 277.862 68.096 379.29-23.142-2.202-46.285-3.226-69.12-3.226-105.062 0-198.349 22.016-277.709 65.536-79.411-43.52-172.646-65.536-277.811-65.536-22.835 0-45.926 1.024-69.12 3.226 3.072-101.427 17.306-249.805 68.096-379.341 58.522-149.197 208.845-242.534 278.835-279.142zM858.675 336.435c70.042 178.688 78.541 387.84 77.978 489.779-34.048-5.683-78.746-10.906-129.024-10.906-116.173 0-216.73 26.726-299.674 79.36-82.893-52.736-183.45-79.36-299.674-79.36-50.227 0-94.976 5.222-128.922 10.906-0.666-101.939 7.885-311.091 77.875-489.779 77.619-197.888 285.184-310.272 350.72-341.606 65.587 31.334 273.152 143.718 350.72 341.606zM988.16 892.314s22.528-314.88-79.667-575.437c-102.093-260.506-400.538-380.877-400.538-380.877s-298.445 120.32-400.589 380.877c-102.144 260.506-79.718 575.437-79.718 575.437s281.19-84.48 480.307 67.686c199.066-152.166 480.256-67.686 480.256-67.686z" />
<glyph unicode="&#xe94c;" glyph-name="vacations-2" d="M116.48 712.55c-64.358 0.102-116.48-49.51-116.48-110.49v-478.822c0-60.979 52.122-110.438 116.48-110.438h39.731v699.75h-39.731zM867.789 712.55v-699.75h42.189c62.874 0 114.022 49.306 114.022 110.438v478.874c0 60.928-51.2 110.49-114.022 110.49h-42.189zM242.995 12.8h538.010v699.75h-538.010v-699.75zM399.667 883.2c-57.344 0-104.55-46.438-104.55-103.219v-33.28h91.238v33.28h0.205c0 7.168 5.939 13.261 13.158 13.261h242.227c7.286-0.087 13.158-6.013 13.158-13.311 0 0 0-0.001 0-0.001v0-33.28h91.238v33.28c-0.051 56.883-47.258 103.27-104.704 103.27h-241.971z" />
<glyph unicode="&#xe94d;" glyph-name="weddings" d="M884.378 344.422c-48.602-48.864-115.886-79.105-190.232-79.105-0.244 0-0.487 0-0.731 0.001h0.038c-18.995 0-37.734 1.997-55.91 5.786-6.909 131.87-92.885 241.999-211.123 284.334l-2.228 0.696c5.126 66.905 34.095 126.206 78.323 170.176l0.013 0.013c48.602 48.864 115.886 79.105 190.232 79.105 0.244 0 0.487 0 0.731-0.001h-0.038c0.221 0.001 0.482 0.001 0.744 0.001 74.346 0 141.63-30.241 190.22-79.093l0.012-0.012c48.834-48.597 79.054-115.86 79.054-190.181 0-0.279 0-0.559-0.001-0.838v0.043c0.001-0.221 0.001-0.482 0.001-0.744 0-74.346-30.241-141.63-79.093-190.22l-0.012-0.012zM425.318 503.296c31.181-13.363 59.904-32.717 84.582-57.446 41.611-41.386 69.701-96.329 77.084-157.645l0.125-1.279c-32.86 14.333-60.915 33.694-84.575 57.439l-0.008 0.008c-41.611 41.386-69.701 96.329-77.084 157.645l-0.125 1.279zM509.901 64c-48.602-48.864-115.886-79.105-190.232-79.105-0.262 0-0.523 0-0.785 0.001h0.041c-0.206-0.001-0.449-0.001-0.693-0.001-74.346 0-141.63 30.241-190.22 79.093l-0.012 0.012c-48.834 48.597-79.054 115.86-79.054 190.181 0 0.279 0 0.559 0.001 0.838v-0.043c-0.001 0.236-0.001 0.515-0.001 0.795 0 74.321 30.22 141.584 79.043 190.171l0.011 0.010c48.597 48.834 115.86 79.054 190.181 79.054 0.279 0 0.559 0 0.838-0.001h-0.043c18.995 0 37.734-1.946 55.91-5.786 6.909-131.87 92.885-241.999 211.123-284.334l2.228-0.696c-5.126-66.905-34.095-126.206-78.323-170.176l-0.013-0.013zM317.952 804.198l106.854 106.854h29.696l21.914-140.339-15.718-15.616-142.694 19.763v29.389zM693.504 854.272c-0.16 0-0.349 0-0.538 0-63.977 0-123.534-18.926-173.377-51.485l1.217 0.746-24.422 156.467h-91.904l-135.475-135.475v-92.262l157.798-21.862c-26.806-40.164-44.897-88.32-50.464-140.224l-0.121-1.395c-17.204 3.291-36.992 5.174-57.22 5.174-176.166 0-318.976-142.81-318.976-318.976s142.81-318.976 318.976-318.976c164.37 0 299.702 124.326 317.088 284.070l0.125 1.418c17.114-3.257 36.8-5.12 56.921-5.12 176.166 0 318.976 142.81 318.976 318.976 0 176.053-142.628 318.793-318.638 318.976h-0.018z" />
<glyph unicode="&#xe94e;" glyph-name="4-screen" d="M59.392 256.87v409.344h905.216v-409.344h-905.267zM511.949 164.198c-0.369-0.016-0.802-0.025-1.237-0.025-17.221 0-31.181 13.96-31.181 31.181s13.96 31.181 31.181 31.181c0.453 0 0.904-0.010 1.353-0.029l-0.064 0.002c16.668-0.697 29.918-14.379 29.918-31.155s-13.249-30.458-29.855-31.153l-0.063-0.002zM939.213 755.2h-854.374c-46.848 0-84.838-37.99-84.838-84.838v-467.763c0-46.848 37.99-84.838 84.838-84.838h854.323c46.848 0 84.838 37.99 84.838 84.838v467.763c0 46.848-37.99 84.838-84.838 84.838zM714.752 480.358l3.277 41.984h-22.17l3.226-41.933h15.667zM681.216 480.358l3.277 41.984h-22.17l3.226-41.933h15.667zM649.216 430.234v19.098h-14.029v73.011h-22.63l-50.944-75.008v-17.101h49.613v-24.064h23.962v24.064h14.029zM539.392 407.654l-0.005-0.005c2.268 2.38 3.661 5.601 3.661 9.148 0 0.26-0.007 0.518-0.021 0.739 0 4.352-1.178 7.68-3.584 9.984-2.458 2.355-5.837 3.533-10.24 3.533-4.557 0-8.038-1.126-10.394-3.43-2.406-2.253-3.584-5.632-3.584-10.086l0.002 0.039c-0.018-0.283-0.027-0.568-0.027-0.855 0-3.556 1.394-6.786 3.66-9.168l-0.017 0.015c2.519-2.197 5.813-3.527 9.418-3.527 0.331 0 0.66 0.011 0.942 0.031l-0.041 0.002c0.302-0.020 0.606-0.030 0.913-0.030 3.595 0 6.869 1.372 9.317 3.612zM486.554 415.078c7.987 6.963 11.981 16.998 11.981 29.952 0 10.957-3.277 19.61-9.933 25.907s-15.565 9.472-26.829 9.472c-4.813 0-8.755-0.41-11.981-1.178l-2.816-0.512 2.202 22.784h41.472v20.838h-62.976l-4.352-59.187 9.728-5.222-0.462-0.119c5.706 1.709 11.74 2.658 18.023 2.73 15.514 0 23.296-5.888 23.296-17.562 0-12.288-7.475-18.432-22.477-18.432-5.018 0-10.291 0.666-15.821 2.048-5.581 1.382-10.445 3.226-14.643 5.478v-21.197c7.936-4.25 18.381-6.298 31.334-6.298 14.899 0 26.317 3.482 34.355 10.496zM390.605 406.118v116.224h-20.173l-37.427-29.798 11.878-14.797 13.312 10.752c1.587 1.28 4.403 3.942 8.499 8.038l-0.41-12.083-0.256-11.059v-67.226h24.576zM68.096 265.626v391.782h887.91v-391.834h-887.962zM604.518 481.485l-21.299-32.154h28.006v19.661c0.072 9.009 0.442 17.787 1.103 26.484l-0.079-1.293h-0.666c-2.239-4.925-4.597-9.108-7.266-13.063l0.2 0.314z" />
<glyph unicode="&#xe94f;" glyph-name="add" d="M834.304 770.304c-82.476 82.503-196.431 133.534-322.304 133.534s-239.828-51.031-322.303-133.533l-0.001-0.001c-82.515-82.471-133.555-196.427-133.555-322.304s51.040-239.834 133.554-322.302l0.002-0.002c82.48-82.474 196.422-133.485 322.278-133.485 251.725 0 455.789 204.064 455.789 455.789 0 125.869-51.021 239.821-133.51 322.304v0zM484.352 419.43v-216.883h56.218v216.883h216.934v56.32h-216.934v216.781h-56.218v-216.832h-216.883v-56.269h216.883zM874.035 85.965c-199.936-199.936-524.083-199.936-724.019 0-200.038 199.987-200.038 524.134 0 724.070 199.936 199.936 524.083 199.936 724.019 0s199.936-524.083 0-724.070z" />
<glyph unicode="&#xe950;" glyph-name="alert2" d="M512-64c-282.214 0-512 229.734-512 512s229.734 512 512 512c282.368 0 512-229.734 512-512s-229.632-512-512-512zM512 857.6c-225.894 0-409.6-183.757-409.6-409.6s183.706-409.6 409.6-409.6 409.6 183.757 409.6 409.6-183.706 409.6-409.6 409.6zM450.56 181.76v102.4h102.4v-102.4h-102.4zM450.56 386.56v307.2h102.4v-307.2h-102.4z" />
<glyph unicode="&#xe951;" glyph-name="all-inclusive" d="M785.92 652.8c-61.747 0-122.163-23.552-179.61-70.042-46.336-37.478-81.92-82.534-105.472-112.384l-0.512-0.768c-8.372-9.165-16.654-19.054-24.505-29.292l-0.788-1.070c-43.827-55.603-125.491-159.078-236.902-159.078-121.446 0-176.742 81.254-176.742 156.774 0 76.698 55.808 154.061 180.326 154.061 82.739 0 148.224-85.094 148.838-85.914 10.24-13.568 29.491-16.282 43.008-5.99 7.442 5.727 12.19 14.636 12.19 24.655 0 7.017-2.329 13.49-6.257 18.687l0.057-0.078c-3.379 4.557-84.275 110.438-197.888 110.438-73.933 0-136.243-23.040-180.224-66.56-37.954-37.711-61.446-89.939-61.446-147.654 0-0.578 0.002-1.156 0.007-1.733l-0.001 0.088c0-108.595 81.766-218.573 238.080-218.573 61.747 0 122.163 23.552 179.61 70.042 46.336 37.478 81.92 82.586 105.472 112.384l0.512 0.768c7.117 7.322 15.206 17.562 25.293 30.362 43.827 55.603 125.491 159.078 236.902 159.078 121.446 0 176.742-81.254 176.742-156.774 0-76.698-55.808-154.061-180.326-154.061-82.739 0-148.224 85.094-148.838 85.914-5.635 7.472-14.495 12.252-24.472 12.252-7.002 0-13.454-2.354-18.608-6.315l0.072 0.053c-7.442-5.727-12.19-14.636-12.19-24.655 0-7.017 2.329-13.49 6.257-18.687l-0.057 0.078c3.379-4.506 84.275-110.438 197.837-110.438 73.933 0 136.243 23.040 180.224 66.56 37.985 37.717 61.498 89.965 61.498 147.705 0 0.579-0.002 1.157-0.007 1.734l0.001-0.089c0 108.544-81.766 218.522-238.080 218.522z" />
<glyph unicode="&#xe952;" glyph-name="change-flight" d="M500.89 109.568l-122.675 323.584-160.87-105.472 15.36-98.304-82.586-54.272-35.942 140.083-114.176 88.576 82.586 54.272 84.070-53.094 160.768 105.574-248.218 241.254 83.302 54.63 363.213-165.683 223.59 146.79c6.911 4.329 15.309 6.896 24.306 6.896 25.562 0 46.285-20.722 46.285-46.285 0-15.627-7.744-29.445-19.604-37.826l-0.145-0.097-223.642-146.739 7.629-399.155-83.251-54.682zM723.61 307.61c-13.244 22.734-21.062 50.040-21.062 79.172 0 7.015 0.453 13.924 1.332 20.7l-0.085-0.8c1.741 14.080 5.274 27.853 10.598 40.96l5.632 13.824 50.893-35.328-2.714-8.448c-8.499-26.624-5.53-55.757 8.243-79.974 17.568-30.333 49.872-50.411 86.865-50.411 18.157 0 35.184 4.837 49.863 13.292l-0.485-0.257c30.342 17.553 50.43 49.853 50.43 86.845 0 18.166-4.844 35.2-13.311 49.882l0.257-0.484c-16.558 28.902-46.506 48.493-81.162 50.319l-0.246 0.010 0.358-52.634-106.701 78.029 104.448 88.269 0.512-52.736c56.32-1.382 107.52-31.693 135.68-81.152 13.205-22.844 20.996-50.251 20.996-79.477 0-59.532-32.326-111.513-80.383-139.348l-0.773-0.413c-22.844-13.205-50.251-20.996-79.477-20.996-59.532 0-111.513 32.326-139.348 80.383l-0.413 0.773z" />
<glyph unicode="&#xe953;" glyph-name="passengers" d="M946.739 155.546c16.742-18.022 31.13-36.813 42.598-56.115 21.555-36.198 34.662-74.086 34.662-112.23h-1024c0 106.598 92.006 212.787 231.168 276.582 20.224 9.318 41.984 17.050 64 24.371 22.886 7.68 46.797 13.363 71.168 18.688 46.541 9.933 94.72 16.998 145.562 16.998 146.381 0 277.504-45.466 370.842-112.128 24.32-17.408 45.414-36.25 64-56.166zM512.051 857.6c128.256 0 232.141-102.4 232.141-228.813 0-126.362-103.936-228.762-232.141-228.762-128.154 0-232.141 102.4-232.141 228.762 0 126.464 103.987 228.813 232.090 228.813z" />
</font>
</defs>
</svg>
