<svg xmlns="http://www.w3.org/2000/svg" xmlns:xlink="http://www.w3.org/1999/xlink" width="146" height="19" viewBox="0 0 146 19"><defs><path id="a" d="M141.865 1.483a.187.187 0 0 0 .245-.106.192.192 0 0 0-.106-.247.192.192 0 0 0-.246.107c-.037.1.007.209.107.246zm.013-.03a.154.154 0 0 1-.087-.203.15.15 0 0 1 .198-.086c.08.033.119.12.087.2a.152.152 0 0 1-.198.088zm.091-.112c.036.01.06.002.074-.03.008-.024.01-.043-.004-.063-.01-.014-.032-.023-.047-.03l-.093-.036-.074.192.036.014.032-.077.037.013.01.096.045.016-.016-.095zm-.063-.062l.02-.054.046.018c.017.007.045.018.035.044-.008.025-.028.025-.047.015l-.054-.023zm.96 2.68a8.06 8.06 0 0 1 2.82 5.596 8.1 8.1 0 0 1-7.522 8.651 8.083 8.083 0 0 1-6.092-2.158l.006-.007a8.078 8.078 0 0 0 5.595 1.727 8.104 8.104 0 0 0 7.524-8.652 8.054 8.054 0 0 0-2.34-5.15l.009-.007zm-14.37 9.215c-.256.144-.316.36-.183.695.12.302.316.437.522.355.163-.067.191-.208.122-.575l-.03-.14c-.066-.359-.077-.515-.035-.67a.474.474 0 0 1 .295-.347c.366-.147.712.077.92.594.223.554.104.98-.333 1.16l-.108-.274c.3-.132.376-.415.218-.817-.132-.333-.344-.478-.564-.389-.179.07-.222.237-.155.61l.027.158.022.137c.045.282.052.38.026.498a.443.443 0 0 1-.283.319c-.341.132-.678-.068-.863-.53-.202-.506-.096-.88.294-1.051l.109.267zm-.23-2.925l1.232-1.038.008.385-1.045.862.343.371.73-.017.007.303-2.093.044-.009-.299.822-.018h.223l-.075-.075-.066-.076-.926-.996-.011-.399.86.953zm.931-3.236l.803.275-.1.288-.803-.288-1.446.441.118-.347.9-.247.112-.033c.045-.013.073-.018.151-.034-.068-.082-.086-.103-.16-.205l-.559-.754.117-.325.867 1.229zm1.413-3.841l-.442.54 1.32 1.079-.316.391-1.32-1.08-.44.533-.3-.24 1.2-1.466.298.243zm2.817-1.982l-1.055.616.227.385.966-.564.186.307-.972.568.26.444 1.078-.63.195.336-1.51.88-1.052-1.804 1.484-.872.193.334zm4.048.811l-.54.036-.27-.448-.847.133-.117.514-.524.133.552-2.282.517-.085 1.229 2zm-1.19-1.077a2.51 2.51 0 0 1-.227-.426 4.5 4.5 0 0 1-.09.48l-.087.397.613-.099-.209-.352zm4.552 1.75l-.439-.172.166-.62c.018-.074.045-.17.08-.297.034-.129.065-.234.09-.31l.079-.263.052-.149a8.078 8.078 0 0 1-.287.46 5.36 5.36 0 0 1-.128.19l-.592.83-.381-.1-.12-1a2.122 2.122 0 0 1-.021-.224c-.005-.129-.013-.23-.015-.296-.005-.06-.004-.142-.004-.255l-.053.25c-.059.277-.087.396-.17.728l-.173.671-.47-.072.528-2.045.707.138.098.965c.024.23.028.417.02.686.078-.151.108-.204.197-.343.062-.096.112-.177.163-.25l.548-.79.67.227-.545 2.041zM136.845 6.7c.817-.724 1.66-1.117 2.37-1.11.805.005 1.271.195 1.92.78 0 0-.016.02-.026.02-.315-.226-.753-.34-1.305-.34-.504.006-1.237.133-2.385 1.104-.314.264-.723.667-1.151 1.088 0 0-.356.343-.37.343l.642.194.149.046s.606.184.606.189c.447-.461.881-.89 1.215-1.148.82-.636 1.487-.765 1.904-.765.425 0 .942.061 1.532.571 0 0-.015.024-.023.026-.223-.158-.77-.186-1.079-.165-.426.025-1.153.269-1.81.855-.275.238-.578.525-.932.857l1.203.336s.165.042.16.044l.435-.383c.646-.534 1.287-.804 1.904-.804.509 0 .874.203 1.006.289.158.107.432.282.422.614-.009.448-.7.84-1.519.856a6.635 6.635 0 0 1-1.645-.166l-.862.876c-.468.483-.997 1.021-1.528 1.514-1.155 1.07-1.903 1.476-2.748 1.498-.747.02-1.18-.342-1.535-.644 0 0 .017-.017.031-.015.332.192.723.207.992.192.522-.032 1.11-.291 1.808-.783.42-.294.807-.659 1.516-1.353l.698-.692s.805-.793.822-.793l-.026-.007s-1.319-.384-1.319-.386l-.645.645-.926.915c-.694.643-1.367 1.006-1.95 1.055-.61.054-.97-.125-1.345-.429 0 0 .013-.019.026-.02.106.064.43.16.89.06.65-.145 1.096-.54 1.717-1.09l.035-.028c.447-.396.936-.88 1.404-1.34l-.363-.106a16.11 16.11 0 0 0-1.084-.286c-.415.398-.942.892-1.382 1.2-.803.559-1.56.656-2.458.319-.172-.064-.737-.316-.745-.804-.01-.191.073-.371.236-.537.424-.435 1.351-.715 2.374-.715.457 0 .9.04 1.349.12l.548-.527c.487-.47.992-.949 1.247-1.17zm-4.545 3.458c.758.05 1.608-.713 2.115-1.171l.13-.121s.22-.202.239-.205a5.215 5.215 0 0 0-.916-.027c-2.09.105-2.117 1.021-2.117 1.06 0 .286.182.439.55.464zm8.488-.743a5.736 5.736 0 0 0-.45.363c.64.075 1.231.038 1.617-.097.435-.155.658-.353.658-.586 0-.23-.221-.285-.406-.293-.312-.01-.811.207-1.419.613zm-22.461 7.393h-3.397l-1.424-3.638h-5.908l-1.417 3.638h-3.173l6.073-14.583v-.001h3.275l5.97 14.584zm-5.741-6.068l-2.03-5.154-2.033 5.154h4.063zM99.477 2.286v2.522h-4.886v12h-3.262v-12h-4.885V2.286h13.033zM81.962 14.284v2.524h-9.51V2.287h3.257v11.997h6.253zm-25.677-3.771v3.771h7.197v2.524H53.038V2.286h10.218v2.522h-6.971V7.99h6.166v2.522h-6.166zm-24.567 6.295V2.286h5.131c5.271 0 8.418 2.728 8.418 7.26s-3.147 7.262-8.418 7.262h-5.131zm3.243-12v9.476h1.885c3.423 0 5.133-1.69 5.133-4.738 0-3.051-1.71-4.738-5.133-4.738H34.96zM11.41 11.72v-.026L.836 16.809 11.408.526v.005-.005l10.57 16.283-10.57-5.089zm0 2.213l11.408 4.822H0l11.408-4.822zm12.332 1.475a.751.751 0 0 1 0 1.503.752.752 0 0 1 0-1.503zm0 1.39a.64.64 0 1 0-.642-.639c0 .355.285.64.642.64zm-.166-.21h-.108v-.866h.333c.197 0 .274.085.274.24 0 .16-.101.228-.219.247l.259.38h-.123l-.26-.38h-.156v.38zm0-.475h.141c.12 0 .248-.007.248-.15 0-.112-.1-.145-.193-.145h-.196v.295z"/></defs><g fill="none" fill-rule="evenodd"><mask id="b" fill="#fff"><use xlink:href="#a"/></mask><use fill="#FFF" xlink:href="#a"/><g fill="#FFF" mask="url(#b)"><path d="M0 0H146V19H0z"/></g></g></svg>